<mxfile host="app.diagrams.net" modified="2023-06-09T08:41:26.315Z" agent="Mozilla/5.0 (Windows NT 10.0; Win64; x64) AppleWebKit/537.36 (KHTML, like Gecko) Chrome/114.0.0.0 Safari/537.36" etag="P_mynosUzl5ecURKY76B" version="21.3.8" type="device">
  <diagram name="Page-1" id="vt9piiYFaFCfpVoI0iMA">
    <mxGraphModel dx="2150" dy="802" grid="1" gridSize="10" guides="1" tooltips="1" connect="1" arrows="1" fold="1" page="1" pageScale="1" pageWidth="827" pageHeight="1169" math="1" shadow="0">
      <root>
        <mxCell id="0" />
        <mxCell id="1" parent="0" />
        <mxCell id="RP3RG8l773F7bLh9pg2W-341" value="" style="rounded=1;whiteSpace=wrap;html=1;arcSize=9;fillColor=#f5f5f5;fontColor=#333333;strokeColor=#666666;" parent="1" vertex="1">
          <mxGeometry x="-4" y="278" width="680.42" height="1050" as="geometry" />
        </mxCell>
        <mxCell id="RP3RG8l773F7bLh9pg2W-342" value="" style="rounded=1;whiteSpace=wrap;html=1;arcSize=9;fillColor=#f5f5f5;fontColor=#333333;strokeColor=#666666;" parent="1" vertex="1">
          <mxGeometry x="-770" y="310" width="760" height="1000" as="geometry" />
        </mxCell>
        <mxCell id="RP3RG8l773F7bLh9pg2W-178" value="" style="ellipse;whiteSpace=wrap;html=1;aspect=fixed;strokeWidth=3;strokeColor=#9673a6;fillColor=#e1d5e7;" parent="1" vertex="1">
          <mxGeometry x="-421" y="480" width="80" height="80" as="geometry" />
        </mxCell>
        <mxCell id="RP3RG8l773F7bLh9pg2W-179" value="" style="ellipse;whiteSpace=wrap;html=1;aspect=fixed;strokeWidth=3;strokeColor=#9673a6;fillColor=#e1d5e7;" parent="1" vertex="1">
          <mxGeometry x="-421" y="360" width="80" height="80" as="geometry" />
        </mxCell>
        <mxCell id="RP3RG8l773F7bLh9pg2W-180" value="" style="ellipse;whiteSpace=wrap;html=1;aspect=fixed;strokeWidth=3;strokeColor=#d79b00;fillColor=#ffe6cc;" parent="1" vertex="1">
          <mxGeometry x="-241" y="480" width="80" height="80" as="geometry" />
        </mxCell>
        <mxCell id="RP3RG8l773F7bLh9pg2W-181" value="" style="ellipse;whiteSpace=wrap;html=1;aspect=fixed;strokeWidth=3;strokeColor=#d79b00;fillColor=#ffe6cc;" parent="1" vertex="1">
          <mxGeometry x="-241" y="360" width="80" height="80" as="geometry" />
        </mxCell>
        <mxCell id="RP3RG8l773F7bLh9pg2W-182" value="" style="endArrow=none;html=1;rounded=0;exitX=1;exitY=0.5;exitDx=0;exitDy=0;entryX=0;entryY=0.5;entryDx=0;entryDy=0;fillColor=#dae8fc;strokeColor=#6c8ebf;endSize=6;strokeWidth=3;" parent="1" source="RP3RG8l773F7bLh9pg2W-179" target="RP3RG8l773F7bLh9pg2W-181" edge="1">
          <mxGeometry width="50" height="50" relative="1" as="geometry">
            <mxPoint x="-51" y="610" as="sourcePoint" />
            <mxPoint x="-241" y="410" as="targetPoint" />
          </mxGeometry>
        </mxCell>
        <mxCell id="RP3RG8l773F7bLh9pg2W-183" value="" style="endArrow=none;html=1;rounded=0;entryX=0;entryY=0.5;entryDx=0;entryDy=0;fillColor=#dae8fc;strokeColor=#6c8ebf;endSize=6;strokeWidth=3;exitX=1;exitY=0.5;exitDx=0;exitDy=0;" parent="1" source="RP3RG8l773F7bLh9pg2W-185" target="RP3RG8l773F7bLh9pg2W-180" edge="1">
          <mxGeometry width="50" height="50" relative="1" as="geometry">
            <mxPoint x="-341" y="340" as="sourcePoint" />
            <mxPoint x="-247" y="440" as="targetPoint" />
          </mxGeometry>
        </mxCell>
        <mxCell id="RP3RG8l773F7bLh9pg2W-184" value="" style="endArrow=none;html=1;rounded=0;fillColor=#dae8fc;strokeColor=#6c8ebf;endSize=6;strokeWidth=3;exitX=1;exitY=0.5;exitDx=0;exitDy=0;entryX=0;entryY=0.5;entryDx=0;entryDy=0;" parent="1" source="RP3RG8l773F7bLh9pg2W-178" target="RP3RG8l773F7bLh9pg2W-180" edge="1">
          <mxGeometry width="50" height="50" relative="1" as="geometry">
            <mxPoint x="-331" y="350" as="sourcePoint" />
            <mxPoint x="-241" y="520" as="targetPoint" />
          </mxGeometry>
        </mxCell>
        <mxCell id="RP3RG8l773F7bLh9pg2W-185" value="&lt;font style=&quot;font-size: 30px;&quot;&gt;$$h_1$$&lt;/font&gt;" style="text;html=1;align=center;verticalAlign=middle;whiteSpace=wrap;rounded=0;strokeWidth=3;strokeColor=none;" parent="1" vertex="1">
          <mxGeometry x="-421" y="380" width="80" height="40" as="geometry" />
        </mxCell>
        <mxCell id="RP3RG8l773F7bLh9pg2W-186" value="&lt;font style=&quot;font-size: 30px;&quot;&gt;$$h_2$$&lt;/font&gt;" style="text;html=1;align=center;verticalAlign=middle;whiteSpace=wrap;rounded=0;strokeWidth=3;strokeColor=none;" parent="1" vertex="1">
          <mxGeometry x="-421" y="500" width="80" height="40" as="geometry" />
        </mxCell>
        <mxCell id="RP3RG8l773F7bLh9pg2W-187" value="" style="endArrow=none;html=1;rounded=0;fillColor=#f8cecc;strokeColor=#b85450;endSize=6;strokeWidth=5;exitX=1;exitY=0.5;exitDx=0;exitDy=0;entryX=0;entryY=0.5;entryDx=0;entryDy=0;" parent="1" source="RP3RG8l773F7bLh9pg2W-186" target="RP3RG8l773F7bLh9pg2W-181" edge="1">
          <mxGeometry width="50" height="50" relative="1" as="geometry">
            <mxPoint x="-331" y="470" as="sourcePoint" />
            <mxPoint x="-231" y="530" as="targetPoint" />
          </mxGeometry>
        </mxCell>
        <mxCell id="RP3RG8l773F7bLh9pg2W-188" value="&lt;font style=&quot;font-size: 30px;&quot;&gt;$$v_2$$&lt;/font&gt;" style="text;html=1;align=center;verticalAlign=middle;whiteSpace=wrap;rounded=0;strokeWidth=3;strokeColor=none;" parent="1" vertex="1">
          <mxGeometry x="-241" y="500" width="80" height="40" as="geometry" />
        </mxCell>
        <mxCell id="RP3RG8l773F7bLh9pg2W-189" value="&lt;font style=&quot;font-size: 30px;&quot;&gt;$$v_1$$&lt;/font&gt;" style="text;html=1;align=center;verticalAlign=middle;whiteSpace=wrap;rounded=0;strokeWidth=3;strokeColor=none;" parent="1" vertex="1">
          <mxGeometry x="-241" y="380" width="80" height="40" as="geometry" />
        </mxCell>
        <mxCell id="RP3RG8l773F7bLh9pg2W-190" value="" style="ellipse;whiteSpace=wrap;html=1;aspect=fixed;opacity=70;strokeWidth=3;strokeColor=#000000;" parent="1" vertex="1">
          <mxGeometry x="-689" y="850" width="80" height="80" as="geometry" />
        </mxCell>
        <mxCell id="RP3RG8l773F7bLh9pg2W-191" value="" style="ellipse;whiteSpace=wrap;html=1;aspect=fixed;opacity=70;strokeWidth=3;strokeColor=#000000;" parent="1" vertex="1">
          <mxGeometry x="-689" y="730" width="80" height="80" as="geometry" />
        </mxCell>
        <mxCell id="RP3RG8l773F7bLh9pg2W-192" value="" style="ellipse;whiteSpace=wrap;html=1;aspect=fixed;opacity=70;strokeWidth=3;strokeColor=#000000;" parent="1" vertex="1">
          <mxGeometry x="-509" y="850" width="80" height="80" as="geometry" />
        </mxCell>
        <mxCell id="RP3RG8l773F7bLh9pg2W-193" value="" style="ellipse;whiteSpace=wrap;html=1;aspect=fixed;opacity=70;strokeWidth=3;strokeColor=#000000;" parent="1" vertex="1">
          <mxGeometry x="-509" y="730" width="80" height="80" as="geometry" />
        </mxCell>
        <mxCell id="RP3RG8l773F7bLh9pg2W-194" value="" style="endArrow=none;html=1;rounded=0;exitX=1;exitY=0.5;exitDx=0;exitDy=0;entryX=0;entryY=0.5;entryDx=0;entryDy=0;fillColor=#d5e8d4;strokeColor=#82b366;endSize=6;strokeWidth=3;opacity=50;" parent="1" source="RP3RG8l773F7bLh9pg2W-191" target="RP3RG8l773F7bLh9pg2W-193" edge="1">
          <mxGeometry width="50" height="50" relative="1" as="geometry">
            <mxPoint x="-319" y="980" as="sourcePoint" />
            <mxPoint x="-509" y="780" as="targetPoint" />
          </mxGeometry>
        </mxCell>
        <mxCell id="RP3RG8l773F7bLh9pg2W-195" value="" style="endArrow=none;html=1;rounded=0;entryX=0;entryY=0.5;entryDx=0;entryDy=0;fillColor=#d5e8d4;strokeColor=#82b366;endSize=6;strokeWidth=3;opacity=50;exitX=1;exitY=0.5;exitDx=0;exitDy=0;" parent="1" source="RP3RG8l773F7bLh9pg2W-191" target="RP3RG8l773F7bLh9pg2W-192" edge="1">
          <mxGeometry width="50" height="50" relative="1" as="geometry">
            <mxPoint x="-609" y="710" as="sourcePoint" />
            <mxPoint x="-515" y="810" as="targetPoint" />
          </mxGeometry>
        </mxCell>
        <mxCell id="RP3RG8l773F7bLh9pg2W-196" value="" style="endArrow=none;html=1;rounded=0;fillColor=#d5e8d4;strokeColor=#82b366;endSize=6;strokeWidth=3;exitX=1;exitY=0.5;exitDx=0;exitDy=0;entryX=0;entryY=0.5;entryDx=0;entryDy=0;opacity=50;" parent="1" source="RP3RG8l773F7bLh9pg2W-190" target="RP3RG8l773F7bLh9pg2W-192" edge="1">
          <mxGeometry width="50" height="50" relative="1" as="geometry">
            <mxPoint x="-599" y="720" as="sourcePoint" />
            <mxPoint x="-509" y="890" as="targetPoint" />
          </mxGeometry>
        </mxCell>
        <mxCell id="RP3RG8l773F7bLh9pg2W-198" value="&lt;font style=&quot;font-size: 30px;&quot;&gt;$$h_2$$&lt;/font&gt;" style="text;html=1;align=center;verticalAlign=middle;whiteSpace=wrap;rounded=0;opacity=70;strokeWidth=3;strokeColor=none;" parent="1" vertex="1">
          <mxGeometry x="-689" y="870" width="80" height="40" as="geometry" />
        </mxCell>
        <mxCell id="RP3RG8l773F7bLh9pg2W-199" value="" style="endArrow=none;html=1;rounded=0;fillColor=#d5e8d4;strokeColor=#82b366;endSize=6;strokeWidth=3;exitX=1;exitY=0.5;exitDx=0;exitDy=0;entryX=0;entryY=0.5;entryDx=0;entryDy=0;opacity=50;" parent="1" source="RP3RG8l773F7bLh9pg2W-198" target="RP3RG8l773F7bLh9pg2W-193" edge="1">
          <mxGeometry width="50" height="50" relative="1" as="geometry">
            <mxPoint x="-599" y="840" as="sourcePoint" />
            <mxPoint x="-499" y="900" as="targetPoint" />
          </mxGeometry>
        </mxCell>
        <mxCell id="RP3RG8l773F7bLh9pg2W-201" value="&lt;font style=&quot;font-size: 30px;&quot;&gt;$$v_1$$&lt;/font&gt;" style="text;html=1;strokeColor=none;fillColor=none;align=center;verticalAlign=middle;whiteSpace=wrap;rounded=0;opacity=70;strokeWidth=3;" parent="1" vertex="1">
          <mxGeometry x="-509" y="750" width="80" height="40" as="geometry" />
        </mxCell>
        <mxCell id="RP3RG8l773F7bLh9pg2W-202" value="" style="ellipse;whiteSpace=wrap;html=1;aspect=fixed;opacity=70;strokeWidth=3;strokeColor=#000000;" parent="1" vertex="1">
          <mxGeometry x="-309" y="850" width="80" height="80" as="geometry" />
        </mxCell>
        <mxCell id="RP3RG8l773F7bLh9pg2W-203" value="" style="ellipse;whiteSpace=wrap;html=1;aspect=fixed;opacity=70;strokeWidth=3;strokeColor=#000000;" parent="1" vertex="1">
          <mxGeometry x="-309" y="730" width="80" height="80" as="geometry" />
        </mxCell>
        <mxCell id="RP3RG8l773F7bLh9pg2W-204" value="" style="ellipse;whiteSpace=wrap;html=1;aspect=fixed;opacity=70;strokeWidth=3;strokeColor=#000000;" parent="1" vertex="1">
          <mxGeometry x="-129" y="850" width="80" height="80" as="geometry" />
        </mxCell>
        <mxCell id="RP3RG8l773F7bLh9pg2W-205" value="" style="ellipse;whiteSpace=wrap;html=1;aspect=fixed;opacity=70;strokeWidth=3;strokeColor=#000000;" parent="1" vertex="1">
          <mxGeometry x="-129" y="730" width="80" height="80" as="geometry" />
        </mxCell>
        <mxCell id="RP3RG8l773F7bLh9pg2W-206" value="" style="endArrow=none;html=1;rounded=0;exitX=1;exitY=0.5;exitDx=0;exitDy=0;entryX=0;entryY=0.5;entryDx=0;entryDy=0;fillColor=#d5e8d4;strokeColor=#82b366;endSize=6;strokeWidth=3;opacity=50;" parent="1" source="RP3RG8l773F7bLh9pg2W-203" target="RP3RG8l773F7bLh9pg2W-205" edge="1">
          <mxGeometry width="50" height="50" relative="1" as="geometry">
            <mxPoint x="61" y="980" as="sourcePoint" />
            <mxPoint x="-129" y="780" as="targetPoint" />
          </mxGeometry>
        </mxCell>
        <mxCell id="RP3RG8l773F7bLh9pg2W-207" value="" style="endArrow=none;html=1;rounded=0;entryX=0;entryY=0.5;entryDx=0;entryDy=0;fillColor=#d5e8d4;strokeColor=#82b366;endSize=6;strokeWidth=3;opacity=50;exitX=1;exitY=0.5;exitDx=0;exitDy=0;" parent="1" source="RP3RG8l773F7bLh9pg2W-203" target="RP3RG8l773F7bLh9pg2W-204" edge="1">
          <mxGeometry width="50" height="50" relative="1" as="geometry">
            <mxPoint x="-229" y="710" as="sourcePoint" />
            <mxPoint x="-135" y="810" as="targetPoint" />
          </mxGeometry>
        </mxCell>
        <mxCell id="RP3RG8l773F7bLh9pg2W-208" value="" style="endArrow=none;html=1;rounded=0;fillColor=#d5e8d4;strokeColor=#82b366;endSize=6;strokeWidth=3;exitX=1;exitY=0.5;exitDx=0;exitDy=0;entryX=0;entryY=0.5;entryDx=0;entryDy=0;" parent="1" source="RP3RG8l773F7bLh9pg2W-202" target="RP3RG8l773F7bLh9pg2W-204" edge="1">
          <mxGeometry width="50" height="50" relative="1" as="geometry">
            <mxPoint x="-219" y="720" as="sourcePoint" />
            <mxPoint x="-129" y="890" as="targetPoint" />
          </mxGeometry>
        </mxCell>
        <mxCell id="RP3RG8l773F7bLh9pg2W-210" value="&lt;font style=&quot;font-size: 30px;&quot;&gt;$$h_2$$&lt;/font&gt;" style="text;html=1;strokeColor=none;fillColor=none;align=center;verticalAlign=middle;whiteSpace=wrap;rounded=0;opacity=50;" parent="1" vertex="1">
          <mxGeometry x="-309" y="870" width="80" height="40" as="geometry" />
        </mxCell>
        <mxCell id="RP3RG8l773F7bLh9pg2W-211" value="" style="endArrow=none;html=1;rounded=0;fillColor=#f8cecc;strokeColor=#b85450;endSize=6;strokeWidth=5;exitX=1;exitY=0.5;exitDx=0;exitDy=0;entryX=0;entryY=0.5;entryDx=0;entryDy=0;dashed=1;dashPattern=1 1;" parent="1" source="RP3RG8l773F7bLh9pg2W-210" target="RP3RG8l773F7bLh9pg2W-205" edge="1">
          <mxGeometry width="50" height="50" relative="1" as="geometry">
            <mxPoint x="-219" y="840" as="sourcePoint" />
            <mxPoint x="-119" y="900" as="targetPoint" />
          </mxGeometry>
        </mxCell>
        <mxCell id="RP3RG8l773F7bLh9pg2W-213" value="&lt;font style=&quot;font-size: 30px;&quot;&gt;$$v_1$$&lt;/font&gt;" style="text;html=1;strokeColor=none;fillColor=none;align=center;verticalAlign=middle;whiteSpace=wrap;rounded=0;opacity=70;strokeWidth=3;" parent="1" vertex="1">
          <mxGeometry x="-129" y="750" width="80" height="40" as="geometry" />
        </mxCell>
        <mxCell id="RP3RG8l773F7bLh9pg2W-214" value="" style="shape=flexArrow;endArrow=block;html=1;rounded=0;fillColor=#7EA6E0;strokeColor=#000000;entryX=0;entryY=0.5;entryDx=0;entryDy=0;exitX=1;exitY=0.5;exitDx=0;exitDy=0;width=7;endSize=8.616;endWidth=10;" parent="1" edge="1">
          <mxGeometry width="50" height="50" relative="1" as="geometry">
            <mxPoint x="-609" y="770" as="sourcePoint" />
            <mxPoint x="-509" y="890" as="targetPoint" />
          </mxGeometry>
        </mxCell>
        <mxCell id="RP3RG8l773F7bLh9pg2W-215" value="" style="shape=flexArrow;endArrow=block;html=1;rounded=0;fillColor=#7EA6E0;strokeColor=#000000;entryX=0;entryY=0.5;entryDx=0;entryDy=0;exitX=1;exitY=0.5;exitDx=0;exitDy=0;width=7;endSize=8.616;endWidth=10;" parent="1" source="RP3RG8l773F7bLh9pg2W-203" edge="1">
          <mxGeometry width="50" height="50" relative="1" as="geometry">
            <mxPoint x="-229" y="710" as="sourcePoint" />
            <mxPoint x="-129" y="890" as="targetPoint" />
          </mxGeometry>
        </mxCell>
        <mxCell id="RP3RG8l773F7bLh9pg2W-216" value="" style="rounded=1;whiteSpace=wrap;html=1;strokeWidth=3;fillColor=#dae8fc;strokeColor=#000000;" parent="1" vertex="1">
          <mxGeometry x="-393.26" y="840" width="60" height="10" as="geometry" />
        </mxCell>
        <mxCell id="RP3RG8l773F7bLh9pg2W-217" value="" style="ellipse;whiteSpace=wrap;html=1;aspect=fixed;opacity=70;strokeWidth=3;strokeColor=#000000;" parent="1" vertex="1">
          <mxGeometry x="-493.13" y="1150" width="80" height="80" as="geometry" />
        </mxCell>
        <mxCell id="RP3RG8l773F7bLh9pg2W-218" value="" style="ellipse;whiteSpace=wrap;html=1;aspect=fixed;opacity=70;strokeWidth=3;strokeColor=#000000;" parent="1" vertex="1">
          <mxGeometry x="-493.13" y="1030" width="80" height="80" as="geometry" />
        </mxCell>
        <mxCell id="RP3RG8l773F7bLh9pg2W-219" value="" style="ellipse;whiteSpace=wrap;html=1;aspect=fixed;opacity=70;strokeWidth=3;strokeColor=#000000;" parent="1" vertex="1">
          <mxGeometry x="-311.4" y="1150" width="80" height="80" as="geometry" />
        </mxCell>
        <mxCell id="RP3RG8l773F7bLh9pg2W-220" value="" style="ellipse;whiteSpace=wrap;html=1;aspect=fixed;opacity=70;strokeWidth=3;strokeColor=#000000;" parent="1" vertex="1">
          <mxGeometry x="-311.4" y="1030" width="80" height="80" as="geometry" />
        </mxCell>
        <mxCell id="RP3RG8l773F7bLh9pg2W-221" value="" style="endArrow=none;html=1;rounded=0;exitX=1;exitY=0.5;exitDx=0;exitDy=0;entryX=0;entryY=0.5;entryDx=0;entryDy=0;fillColor=#dae8fc;strokeColor=#6c8ebf;endSize=6;strokeWidth=3;" parent="1" source="RP3RG8l773F7bLh9pg2W-218" target="RP3RG8l773F7bLh9pg2W-220" edge="1">
          <mxGeometry width="50" height="50" relative="1" as="geometry">
            <mxPoint x="-121.39999999999998" y="1280" as="sourcePoint" />
            <mxPoint x="-311.4" y="1080" as="targetPoint" />
          </mxGeometry>
        </mxCell>
        <mxCell id="RP3RG8l773F7bLh9pg2W-222" value="" style="endArrow=none;html=1;rounded=0;entryX=0;entryY=0.5;entryDx=0;entryDy=0;fillColor=#dae8fc;strokeColor=#6c8ebf;endSize=6;strokeWidth=3;exitX=1;exitY=0.5;exitDx=0;exitDy=0;" parent="1" target="RP3RG8l773F7bLh9pg2W-219" edge="1">
          <mxGeometry width="50" height="50" relative="1" as="geometry">
            <mxPoint x="-413.1300000000001" y="1070" as="sourcePoint" />
            <mxPoint x="-317.4" y="1110" as="targetPoint" />
          </mxGeometry>
        </mxCell>
        <mxCell id="RP3RG8l773F7bLh9pg2W-223" value="" style="endArrow=none;html=1;rounded=0;fillColor=#d5e8d4;strokeColor=#82b366;endSize=6;strokeWidth=3;exitX=1;exitY=0.5;exitDx=0;exitDy=0;entryX=0;entryY=0.5;entryDx=0;entryDy=0;opacity=50;" parent="1" source="RP3RG8l773F7bLh9pg2W-217" target="RP3RG8l773F7bLh9pg2W-219" edge="1">
          <mxGeometry width="50" height="50" relative="1" as="geometry">
            <mxPoint x="-401.4" y="1020" as="sourcePoint" />
            <mxPoint x="-311.4" y="1190" as="targetPoint" />
          </mxGeometry>
        </mxCell>
        <mxCell id="RP3RG8l773F7bLh9pg2W-225" value="&lt;font style=&quot;font-size: 30px;&quot;&gt;$$h_2$$&lt;/font&gt;" style="text;html=1;strokeColor=none;fillColor=none;align=center;verticalAlign=middle;whiteSpace=wrap;rounded=0;opacity=70;strokeWidth=3;" parent="1" vertex="1">
          <mxGeometry x="-493.13" y="1170" width="80" height="40" as="geometry" />
        </mxCell>
        <mxCell id="RP3RG8l773F7bLh9pg2W-226" value="" style="endArrow=none;html=1;rounded=0;fillColor=#d5e8d4;strokeColor=#82b366;endSize=6;strokeWidth=3;exitX=1;exitY=0.5;exitDx=0;exitDy=0;entryX=0;entryY=0.5;entryDx=0;entryDy=0;opacity=50;" parent="1" source="RP3RG8l773F7bLh9pg2W-225" target="RP3RG8l773F7bLh9pg2W-220" edge="1">
          <mxGeometry width="50" height="50" relative="1" as="geometry">
            <mxPoint x="-401.4" y="1140" as="sourcePoint" />
            <mxPoint x="-301.4" y="1200" as="targetPoint" />
          </mxGeometry>
        </mxCell>
        <mxCell id="RP3RG8l773F7bLh9pg2W-228" value="&lt;font style=&quot;font-size: 30px;&quot;&gt;$$v_1$$&lt;/font&gt;" style="text;html=1;align=center;verticalAlign=middle;whiteSpace=wrap;rounded=0;opacity=70;strokeWidth=3;strokeColor=none;" parent="1" vertex="1">
          <mxGeometry x="-311.4" y="1050" width="80" height="40" as="geometry" />
        </mxCell>
        <mxCell id="RP3RG8l773F7bLh9pg2W-229" value="" style="shape=flexArrow;endArrow=block;html=1;rounded=0;fillColor=#7EA6E0;strokeColor=#EA6B66;entryX=1;entryY=0.5;entryDx=0;entryDy=0;exitX=0;exitY=0.5;exitDx=0;exitDy=0;endWidth=15.555555555555555;endSize=11.305555555555555;strokeWidth=2;" parent="1" target="RP3RG8l773F7bLh9pg2W-225" edge="1">
          <mxGeometry width="50" height="50" relative="1" as="geometry">
            <mxPoint x="-311.4" y="1070" as="sourcePoint" />
            <mxPoint x="-411.4" y="1130" as="targetPoint" />
          </mxGeometry>
        </mxCell>
        <mxCell id="RP3RG8l773F7bLh9pg2W-230" value="" style="shape=flexArrow;endArrow=block;html=1;rounded=0;fillColor=#7EA6E0;strokeColor=#EA6B66;entryX=0;entryY=0.5;entryDx=0;entryDy=0;exitX=1;exitY=0.5;exitDx=0;exitDy=0;width=7;endSize=8.616;endWidth=10;strokeWidth=2;" parent="1" source="RP3RG8l773F7bLh9pg2W-198" edge="1">
          <mxGeometry width="50" height="50" relative="1" as="geometry">
            <mxPoint x="-599" y="720" as="sourcePoint" />
            <mxPoint x="-509" y="890" as="targetPoint" />
          </mxGeometry>
        </mxCell>
        <mxCell id="RP3RG8l773F7bLh9pg2W-231" value="" style="shape=flexArrow;endArrow=block;html=1;rounded=0;fillColor=#7EA6E0;strokeColor=#000000;entryX=1;entryY=0.5;entryDx=0;entryDy=0;exitX=0;exitY=0.5;exitDx=0;exitDy=0;endWidth=17.5;endSize=12.072222222222223;" parent="1" target="RP3RG8l773F7bLh9pg2W-203" edge="1">
          <mxGeometry width="50" height="50" relative="1" as="geometry">
            <mxPoint x="-129" y="770" as="sourcePoint" />
            <mxPoint x="-229" y="710" as="targetPoint" />
            <Array as="points" />
          </mxGeometry>
        </mxCell>
        <mxCell id="RP3RG8l773F7bLh9pg2W-232" value="" style="shape=flexArrow;endArrow=block;html=1;rounded=0;fillColor=#7EA6E0;strokeColor=#000000;entryX=1;entryY=0.5;entryDx=0;entryDy=0;exitX=0;exitY=0.5;exitDx=0;exitDy=0;endWidth=17.5;endSize=12.072222222222223;" parent="1" source="RP3RG8l773F7bLh9pg2W-201" edge="1">
          <mxGeometry width="50" height="50" relative="1" as="geometry">
            <mxPoint x="-479" y="700" as="sourcePoint" />
            <mxPoint x="-609" y="770" as="targetPoint" />
            <Array as="points" />
          </mxGeometry>
        </mxCell>
        <mxCell id="RP3RG8l773F7bLh9pg2W-233" value="" style="shape=flexArrow;endArrow=block;html=1;rounded=0;fillColor=#7EA6E0;strokeColor=#EA6B66;entryX=1;entryY=0.5;entryDx=0;entryDy=0;exitX=0;exitY=0.5;exitDx=0;exitDy=0;endWidth=15.555555555555555;endSize=11;strokeWidth=2;" parent="1" source="RP3RG8l773F7bLh9pg2W-201" target="RP3RG8l773F7bLh9pg2W-198" edge="1">
          <mxGeometry width="50" height="50" relative="1" as="geometry">
            <mxPoint x="-509" y="770" as="sourcePoint" />
            <mxPoint x="-459" y="720" as="targetPoint" />
          </mxGeometry>
        </mxCell>
        <mxCell id="RP3RG8l773F7bLh9pg2W-234" value="" style="strokeWidth=7;html=1;shape=mxgraph.flowchart.annotation_2;align=left;labelPosition=right;pointerEvents=1;rotation=90;" parent="1" vertex="1">
          <mxGeometry x="-443.01" y="474.53999999999996" width="126.25" height="354.69" as="geometry" />
        </mxCell>
        <mxCell id="RP3RG8l773F7bLh9pg2W-235" value="&lt;font color=&quot;#7ea6e0&quot; style=&quot;font-size: 30px;&quot;&gt;$$\zeta G(v_1h_2)$$&lt;/font&gt;" style="text;html=1;strokeColor=none;fillColor=none;align=center;verticalAlign=middle;whiteSpace=wrap;rounded=0;movable=1;resizable=1;rotatable=1;deletable=1;editable=1;locked=0;connectable=1;container=0;" parent="1" vertex="1">
          <mxGeometry x="-227.26263157894732" y="950" width="56.84210526315789" height="30" as="geometry" />
        </mxCell>
        <mxCell id="RP3RG8l773F7bLh9pg2W-236" value="&lt;font color=&quot;#ea6b66&quot; style=&quot;font-size: 30px;&quot;&gt;$$I(v_1h_2)&lt;br&gt;$$&lt;/font&gt;" style="text;html=1;strokeColor=none;fillColor=none;align=center;verticalAlign=middle;whiteSpace=wrap;rounded=0;movable=1;resizable=1;rotatable=1;deletable=1;editable=1;locked=0;connectable=1;container=0;" parent="1" vertex="1">
          <mxGeometry x="-403.1326315789473" y="1267" width="56.84210526315789" height="30" as="geometry" />
        </mxCell>
        <mxCell id="RP3RG8l773F7bLh9pg2W-237" value="" style="rounded=1;whiteSpace=wrap;html=1;strokeWidth=3;fillColor=#dae8fc;strokeColor=#000000;" parent="1" vertex="1">
          <mxGeometry x="-392.26" y="1010" width="60" height="10" as="geometry" />
        </mxCell>
        <mxCell id="RP3RG8l773F7bLh9pg2W-238" value="" style="rounded=1;whiteSpace=wrap;html=1;strokeWidth=3;fillColor=#dae8fc;strokeColor=#000000;" parent="1" vertex="1">
          <mxGeometry x="-393.26" y="990" width="60" height="10" as="geometry" />
        </mxCell>
        <mxCell id="RP3RG8l773F7bLh9pg2W-239" value="&lt;font style=&quot;font-size: 50px;&quot;&gt;$$\dots$$&lt;/font&gt;" style="text;html=1;strokeColor=none;fillColor=none;align=center;verticalAlign=middle;whiteSpace=wrap;rounded=0;movable=1;resizable=1;rotatable=1;deletable=1;editable=1;locked=0;connectable=1;container=0;" parent="1" vertex="1">
          <mxGeometry x="-121.00263157894733" y="440" width="56.84210526315789" height="30" as="geometry" />
        </mxCell>
        <mxCell id="RP3RG8l773F7bLh9pg2W-240" value="" style="shape=flexArrow;endArrow=block;html=1;rounded=0;fillColor=#7EA6E0;strokeColor=#000000;entryX=1;entryY=0.5;entryDx=0;entryDy=0;width=3.333333333333333;endSize=8.658333333333333;endWidth=10;exitX=0;exitY=0.5;exitDx=0;exitDy=0;" parent="1" target="RP3RG8l773F7bLh9pg2W-198" edge="1">
          <mxGeometry width="50" height="50" relative="1" as="geometry">
            <mxPoint x="-509" y="890" as="sourcePoint" />
            <mxPoint x="-499" y="900" as="targetPoint" />
          </mxGeometry>
        </mxCell>
        <mxCell id="RP3RG8l773F7bLh9pg2W-241" value="" style="shape=flexArrow;endArrow=block;html=1;rounded=0;fillColor=#7EA6E0;strokeColor=#EA6B66;width=3.333333333333333;endSize=8.658333333333333;endWidth=10;exitX=-0.026;exitY=0.555;exitDx=0;exitDy=0;exitPerimeter=0;" parent="1" edge="1">
          <mxGeometry width="50" height="50" relative="1" as="geometry">
            <mxPoint x="-511.0799999999999" y="892.2" as="sourcePoint" />
            <mxPoint x="-609" y="890" as="targetPoint" />
            <Array as="points">
              <mxPoint x="-589" y="920" />
            </Array>
          </mxGeometry>
        </mxCell>
        <mxCell id="RP3RG8l773F7bLh9pg2W-242" value="" style="shape=flexArrow;endArrow=block;html=1;rounded=0;fillColor=#7EA6E0;strokeColor=#000000;entryX=1;entryY=0.5;entryDx=0;entryDy=0;width=3.333333333333333;endSize=8.658333333333333;endWidth=10;exitX=0;exitY=0.5;exitDx=0;exitDy=0;" parent="1" edge="1">
          <mxGeometry width="50" height="50" relative="1" as="geometry">
            <mxPoint x="-127.25999999999999" y="890" as="sourcePoint" />
            <mxPoint x="-227.26" y="890" as="targetPoint" />
          </mxGeometry>
        </mxCell>
        <mxCell id="RP3RG8l773F7bLh9pg2W-243" value="" style="shape=flexArrow;endArrow=block;html=1;rounded=0;fillColor=#7EA6E0;strokeColor=#EA6B66;width=3.333333333333333;endSize=8.658333333333333;endWidth=10;exitX=0;exitY=0.5;exitDx=0;exitDy=0;entryX=0.972;entryY=0.486;entryDx=0;entryDy=0;entryPerimeter=0;strokeWidth=2;" parent="1" target="RP3RG8l773F7bLh9pg2W-225" edge="1">
          <mxGeometry width="50" height="50" relative="1" as="geometry">
            <mxPoint x="-311.4000000000001" y="1190" as="sourcePoint" />
            <mxPoint x="-413.13" y="1190" as="targetPoint" />
            <Array as="points">
              <mxPoint x="-393.13" y="1220" />
            </Array>
          </mxGeometry>
        </mxCell>
        <mxCell id="RP3RG8l773F7bLh9pg2W-244" value="" style="shape=flexArrow;endArrow=block;html=1;rounded=0;fillColor=#7EA6E0;strokeColor=#EA6B66;entryX=0;entryY=0.5;entryDx=0;entryDy=0;exitX=1;exitY=0.5;exitDx=0;exitDy=0;width=7;endSize=8.616;endWidth=10;strokeWidth=2;" parent="1" source="RP3RG8l773F7bLh9pg2W-225" edge="1">
          <mxGeometry width="50" height="50" relative="1" as="geometry">
            <mxPoint x="-571.4" y="1030" as="sourcePoint" />
            <mxPoint x="-311.4000000000001" y="1190" as="targetPoint" />
          </mxGeometry>
        </mxCell>
        <mxCell id="RP3RG8l773F7bLh9pg2W-245" value="" style="group" parent="1" vertex="1" connectable="0">
          <mxGeometry x="-721.0026315789473" y="370" width="277.9926315789474" height="176" as="geometry" />
        </mxCell>
        <mxCell id="RP3RG8l773F7bLh9pg2W-246" value="&lt;font style=&quot;font-size: 30px;&quot;&gt;$$A = &lt;br&gt;$$&lt;/font&gt;" style="text;html=1;strokeColor=none;fillColor=none;align=center;verticalAlign=middle;whiteSpace=wrap;rounded=0;movable=1;resizable=1;rotatable=1;deletable=1;editable=1;locked=0;connectable=1;container=0;" parent="RP3RG8l773F7bLh9pg2W-245" vertex="1">
          <mxGeometry y="82" width="56.84210526315789" height="30" as="geometry" />
        </mxCell>
        <mxCell id="RP3RG8l773F7bLh9pg2W-247" value="&lt;font style=&quot;font-size: 13px;&quot;&gt;$$&amp;nbsp;&lt;br style=&quot;border-color: var(--border-color);&quot;&gt;\begin{pmatrix}&lt;br style=&quot;border-color: var(--border-color);&quot;&gt;&amp;amp;&amp;nbsp;\quad&amp;nbsp;&amp;nbsp;\quad &amp;amp;&amp;nbsp;\quad &amp;amp;&amp;nbsp;\quad &amp;amp;&amp;nbsp;\quad &amp;amp;&amp;nbsp;\\&lt;br style=&quot;border-color: var(--border-color);&quot;&gt;&amp;amp;&amp;nbsp; &amp;amp;&amp;nbsp; &amp;amp;&amp;nbsp; &amp;amp;&amp;nbsp; &amp;amp;&amp;nbsp; &amp;amp; \\&lt;br style=&quot;border-color: var(--border-color);&quot;&gt;&amp;amp;&amp;nbsp; &amp;amp;&amp;nbsp; &amp;amp;&amp;nbsp; &amp;amp;&amp;nbsp; &amp;amp;&amp;nbsp; &amp;amp;&amp;nbsp;\\&lt;br style=&quot;border-color: var(--border-color);&quot;&gt;&amp;amp;&amp;nbsp; &amp;amp;&amp;nbsp; &amp;amp;&amp;nbsp; &amp;amp;&amp;nbsp; &amp;amp;&amp;nbsp; &amp;amp; \\&lt;br style=&quot;border-color: var(--border-color);&quot;&gt;&amp;amp;&amp;nbsp; &amp;amp;&amp;nbsp; &amp;amp;&amp;nbsp; &amp;amp;&amp;nbsp; &amp;amp;&amp;nbsp; &amp;amp;&amp;nbsp;\\&lt;br style=&quot;border-color: var(--border-color);&quot;&gt;&amp;amp;&amp;nbsp; &amp;amp;&amp;nbsp; &amp;amp;&amp;nbsp; &amp;amp;&amp;nbsp; &amp;amp;&amp;nbsp; &amp;amp;&amp;nbsp;\\&lt;br style=&quot;border-color: var(--border-color);&quot;&gt;&amp;amp;&amp;nbsp; &amp;amp;&amp;nbsp; &amp;amp;&amp;nbsp; &amp;amp;&amp;nbsp; &amp;amp;&amp;nbsp; &amp;amp;&amp;nbsp;\\&lt;br style=&quot;border-color: var(--border-color);&quot;&gt;\end{pmatrix}&lt;br style=&quot;border-color: var(--border-color);&quot;&gt;$$&lt;/font&gt;" style="text;whiteSpace=wrap;html=1;movable=1;resizable=1;rotatable=1;deletable=1;editable=1;locked=0;connectable=1;container=0;" parent="RP3RG8l773F7bLh9pg2W-245" vertex="1">
          <mxGeometry x="65.84526315789475" y="10" width="198.94736842105263" height="70" as="geometry" />
        </mxCell>
        <mxCell id="RP3RG8l773F7bLh9pg2W-248" value="" style="rounded=1;whiteSpace=wrap;html=1;fillColor=#d5e8d4;strokeColor=#82b366;opacity=50;movable=1;resizable=1;rotatable=1;deletable=1;editable=1;locked=0;connectable=1;container=0;" parent="RP3RG8l773F7bLh9pg2W-245" vertex="1">
          <mxGeometry x="87.36368421052634" y="106" width="70" height="70" as="geometry" />
        </mxCell>
        <mxCell id="RP3RG8l773F7bLh9pg2W-249" value="" style="rounded=1;whiteSpace=wrap;html=1;fillColor=#f5f5f5;strokeColor=#666666;opacity=70;movable=1;resizable=1;rotatable=1;deletable=1;editable=1;locked=0;connectable=1;container=0;fontColor=#333333;" parent="RP3RG8l773F7bLh9pg2W-245" vertex="1">
          <mxGeometry x="172.6268421052631" y="106" width="70" height="70" as="geometry" />
        </mxCell>
        <mxCell id="RP3RG8l773F7bLh9pg2W-250" value="" style="rounded=1;whiteSpace=wrap;html=1;fillColor=#f5f5f5;strokeColor=#666666;opacity=70;movable=1;resizable=1;rotatable=1;deletable=1;editable=1;locked=0;connectable=1;container=0;fontColor=#333333;" parent="RP3RG8l773F7bLh9pg2W-245" vertex="1">
          <mxGeometry x="87.36368421052634" y="26" width="70" height="70" as="geometry" />
        </mxCell>
        <mxCell id="RP3RG8l773F7bLh9pg2W-251" value="" style="rounded=1;whiteSpace=wrap;html=1;fillColor=#d5e8d4;strokeColor=#82b366;opacity=50;movable=1;resizable=1;rotatable=1;deletable=1;editable=1;locked=0;connectable=1;container=0;" parent="RP3RG8l773F7bLh9pg2W-245" vertex="1">
          <mxGeometry x="172.6268421052631" y="26" width="70" height="70" as="geometry" />
        </mxCell>
        <mxCell id="RP3RG8l773F7bLh9pg2W-252" value="&lt;font style=&quot;font-size: 25px;&quot;&gt;$$0$$&lt;/font&gt;" style="text;html=1;strokeColor=none;fillColor=none;align=center;verticalAlign=middle;whiteSpace=wrap;rounded=0;movable=1;resizable=1;rotatable=1;deletable=1;editable=1;locked=0;connectable=1;container=0;" parent="RP3RG8l773F7bLh9pg2W-245" vertex="1">
          <mxGeometry x="92.1005263157895" y="46" width="56.84210526315789" height="30" as="geometry" />
        </mxCell>
        <mxCell id="RP3RG8l773F7bLh9pg2W-253" value="&lt;font style=&quot;font-size: 25px;&quot;&gt;$$0$$&lt;/font&gt;" style="text;html=1;strokeColor=none;fillColor=none;align=center;verticalAlign=middle;whiteSpace=wrap;rounded=0;movable=1;resizable=1;rotatable=1;deletable=1;editable=1;locked=0;connectable=1;container=0;" parent="RP3RG8l773F7bLh9pg2W-245" vertex="1">
          <mxGeometry x="179.20999999999992" y="126" width="56.84210526315789" height="30" as="geometry" />
        </mxCell>
        <mxCell id="RP3RG8l773F7bLh9pg2W-254" value="&lt;font style=&quot;font-size: 25px;&quot;&gt;$$h*v$$&lt;/font&gt;" style="text;html=1;strokeColor=none;fillColor=none;align=center;verticalAlign=middle;whiteSpace=wrap;rounded=0;movable=1;resizable=1;rotatable=1;deletable=1;editable=1;locked=0;connectable=1;container=0;" parent="RP3RG8l773F7bLh9pg2W-245" vertex="1">
          <mxGeometry x="179.20999999999992" y="46" width="56.84210526315789" height="30" as="geometry" />
        </mxCell>
        <mxCell id="RP3RG8l773F7bLh9pg2W-255" value="&lt;font style=&quot;font-size: 25px;&quot;&gt;$$v*h$$&lt;/font&gt;" style="text;html=1;strokeColor=none;fillColor=none;align=center;verticalAlign=middle;whiteSpace=wrap;rounded=0;movable=1;resizable=1;rotatable=1;deletable=1;editable=1;locked=0;connectable=1;container=0;" parent="RP3RG8l773F7bLh9pg2W-245" vertex="1">
          <mxGeometry x="93.9405263157895" y="126" width="56.84210526315789" height="30" as="geometry" />
        </mxCell>
        <mxCell id="RP3RG8l773F7bLh9pg2W-256" value="" style="ellipse;whiteSpace=wrap;html=1;aspect=fixed;fillColor=#e1d5e7;strokeColor=#9673a6;container=0;" parent="RP3RG8l773F7bLh9pg2W-245" vertex="1">
          <mxGeometry x="95.74263157894737" width="15" height="15" as="geometry" />
        </mxCell>
        <mxCell id="RP3RG8l773F7bLh9pg2W-257" value="" style="ellipse;whiteSpace=wrap;html=1;aspect=fixed;fillColor=#e1d5e7;strokeColor=#9673a6;container=0;" parent="RP3RG8l773F7bLh9pg2W-245" vertex="1">
          <mxGeometry x="136.7815204678363" width="15" height="15" as="geometry" />
        </mxCell>
        <mxCell id="RP3RG8l773F7bLh9pg2W-258" value="" style="ellipse;whiteSpace=wrap;html=1;aspect=fixed;fillColor=#ffe6cc;strokeColor=#d79b00;container=0;" parent="RP3RG8l773F7bLh9pg2W-245" vertex="1">
          <mxGeometry x="175.6026315789474" width="15" height="15" as="geometry" />
        </mxCell>
        <mxCell id="RP3RG8l773F7bLh9pg2W-259" value="" style="ellipse;whiteSpace=wrap;html=1;aspect=fixed;fillColor=#ffe6cc;strokeColor=#d79b00;container=0;" parent="RP3RG8l773F7bLh9pg2W-245" vertex="1">
          <mxGeometry x="216.64152046783636" width="15" height="15" as="geometry" />
        </mxCell>
        <mxCell id="RP3RG8l773F7bLh9pg2W-260" value="" style="ellipse;whiteSpace=wrap;html=1;aspect=fixed;fillColor=#e1d5e7;strokeColor=#9673a6;flipH=0;flipV=1;rotation=90;container=0;" parent="RP3RG8l773F7bLh9pg2W-245" vertex="1">
          <mxGeometry x="262.99263157894734" y="32.5" width="15" height="15" as="geometry" />
        </mxCell>
        <mxCell id="RP3RG8l773F7bLh9pg2W-261" value="" style="ellipse;whiteSpace=wrap;html=1;aspect=fixed;fillColor=#e1d5e7;strokeColor=#9673a6;flipH=0;flipV=1;rotation=90;container=0;" parent="RP3RG8l773F7bLh9pg2W-245" vertex="1">
          <mxGeometry x="262.99263157894734" y="70.5" width="15" height="15" as="geometry" />
        </mxCell>
        <mxCell id="RP3RG8l773F7bLh9pg2W-262" value="" style="ellipse;whiteSpace=wrap;html=1;aspect=fixed;fillColor=#ffe6cc;strokeColor=#d79b00;container=0;rotation=90;" parent="RP3RG8l773F7bLh9pg2W-245" vertex="1">
          <mxGeometry x="262.9926315789474" y="113.5" width="15" height="15" as="geometry" />
        </mxCell>
        <mxCell id="RP3RG8l773F7bLh9pg2W-263" value="" style="ellipse;whiteSpace=wrap;html=1;aspect=fixed;fillColor=#ffe6cc;strokeColor=#d79b00;container=0;rotation=90;direction=south;" parent="RP3RG8l773F7bLh9pg2W-245" vertex="1">
          <mxGeometry x="262.9926315789474" y="151.5" width="15" height="15" as="geometry" />
        </mxCell>
        <mxCell id="RP3RG8l773F7bLh9pg2W-266" value="&lt;font color=&quot;#7ea6e0&quot; style=&quot;font-size: 30px;&quot;&gt;$$&lt;br&gt;&amp;nbsp;G(v_1h_2)$$&lt;/font&gt;" style="text;html=1;strokeColor=none;fillColor=none;align=center;verticalAlign=middle;whiteSpace=wrap;rounded=0;movable=1;resizable=1;rotatable=1;deletable=1;editable=1;locked=0;connectable=1;container=0;" parent="1" vertex="1">
          <mxGeometry x="-597.8526315789472" y="950" width="56.84210526315789" height="30" as="geometry" />
        </mxCell>
        <mxCell id="RP3RG8l773F7bLh9pg2W-267" value="" style="ellipse;whiteSpace=wrap;html=1;aspect=fixed;container=0;rotation=90;strokeWidth=3;strokeColor=#000000;" parent="1" vertex="1">
          <mxGeometry x="87" y="675" width="60" height="60" as="geometry" />
        </mxCell>
        <mxCell id="RP3RG8l773F7bLh9pg2W-268" value="" style="ellipse;whiteSpace=wrap;html=1;aspect=fixed;container=0;rotation=90;strokeWidth=3;strokeColor=#000000;" parent="1" vertex="1">
          <mxGeometry x="87" y="575" width="60" height="60" as="geometry" />
        </mxCell>
        <mxCell id="RP3RG8l773F7bLh9pg2W-269" value="" style="ellipse;whiteSpace=wrap;html=1;aspect=fixed;container=0;rotation=90;strokeWidth=3;" parent="1" vertex="1">
          <mxGeometry x="247" y="625" width="60" height="60" as="geometry" />
        </mxCell>
        <mxCell id="RP3RG8l773F7bLh9pg2W-270" value="" style="ellipse;whiteSpace=wrap;html=1;aspect=fixed;container=0;rotation=90;strokeWidth=3;" parent="1" vertex="1">
          <mxGeometry x="247" y="521" width="60" height="60" as="geometry" />
        </mxCell>
        <mxCell id="RP3RG8l773F7bLh9pg2W-271" value="" style="ellipse;whiteSpace=wrap;html=1;aspect=fixed;container=0;rotation=90;strokeWidth=3;" parent="1" vertex="1">
          <mxGeometry x="247" y="425" width="60" height="60" as="geometry" />
        </mxCell>
        <mxCell id="RP3RG8l773F7bLh9pg2W-272" value="" style="endArrow=none;html=1;rounded=0;exitX=1;exitY=0.5;exitDx=0;exitDy=0;strokeWidth=11;entryX=0.5;entryY=1;entryDx=0;entryDy=0;strokeColor=#67AB9F;opacity=30;" parent="1" target="RP3RG8l773F7bLh9pg2W-271" edge="1">
          <mxGeometry width="50" height="50" relative="1" as="geometry">
            <mxPoint x="147" y="505" as="sourcePoint" />
            <mxPoint x="268" y="565" as="targetPoint" />
          </mxGeometry>
        </mxCell>
        <mxCell id="RP3RG8l773F7bLh9pg2W-273" value="" style="endArrow=none;html=1;rounded=0;exitX=0.5;exitY=0;exitDx=0;exitDy=0;strokeWidth=11;entryX=0.5;entryY=1;entryDx=0;entryDy=0;strokeColor=#FFD966;opacity=30;" parent="1" source="RP3RG8l773F7bLh9pg2W-268" target="RP3RG8l773F7bLh9pg2W-270" edge="1">
          <mxGeometry width="50" height="50" relative="1" as="geometry">
            <mxPoint x="137" y="625" as="sourcePoint" />
            <mxPoint x="258" y="690" as="targetPoint" />
          </mxGeometry>
        </mxCell>
        <mxCell id="RP3RG8l773F7bLh9pg2W-274" value="" style="endArrow=none;html=1;rounded=0;strokeWidth=11;entryX=0.5;entryY=1;entryDx=0;entryDy=0;exitX=0.5;exitY=0;exitDx=0;exitDy=0;strokeColor=#FFD966;opacity=30;" parent="1" source="RP3RG8l773F7bLh9pg2W-267" target="RP3RG8l773F7bLh9pg2W-269" edge="1">
          <mxGeometry width="50" height="50" relative="1" as="geometry">
            <mxPoint x="178" y="760" as="sourcePoint" />
            <mxPoint x="289" y="720" as="targetPoint" />
          </mxGeometry>
        </mxCell>
        <mxCell id="RP3RG8l773F7bLh9pg2W-275" value="" style="endArrow=none;html=1;rounded=0;strokeWidth=11;entryX=0.5;entryY=1;entryDx=0;entryDy=0;exitX=0.5;exitY=0;exitDx=0;exitDy=0;strokeColor=#FFD966;opacity=30;" parent="1" source="RP3RG8l773F7bLh9pg2W-267" target="RP3RG8l773F7bLh9pg2W-270" edge="1">
          <mxGeometry width="50" height="50" relative="1" as="geometry">
            <mxPoint x="137" y="716" as="sourcePoint" />
            <mxPoint x="258" y="665" as="targetPoint" />
          </mxGeometry>
        </mxCell>
        <mxCell id="RP3RG8l773F7bLh9pg2W-276" value="" style="verticalLabelPosition=bottom;verticalAlign=top;html=1;shape=mxgraph.basic.polygon;polyCoords=[[0.25,0],[0.75,0],[1,0.25],[1,0.75],[0.8,1],[0.25,1],[0,0.75],[0,0.25]];polyline=0;strokeWidth=3;strokeColor=#000000;" parent="1" vertex="1">
          <mxGeometry x="87" y="376" width="60" height="60" as="geometry" />
        </mxCell>
        <mxCell id="RP3RG8l773F7bLh9pg2W-277" value="" style="endArrow=none;html=1;rounded=0;exitX=0.5;exitY=0;exitDx=0;exitDy=0;strokeWidth=11;entryX=0.5;entryY=1;entryDx=0;entryDy=0;fillColor=#d5e8d4;strokeColor=#FFD966;opacity=30;" parent="1" source="RP3RG8l773F7bLh9pg2W-268" target="RP3RG8l773F7bLh9pg2W-269" edge="1">
          <mxGeometry width="50" height="50" relative="1" as="geometry">
            <mxPoint x="157" y="615" as="sourcePoint" />
            <mxPoint x="257" y="561" as="targetPoint" />
          </mxGeometry>
        </mxCell>
        <mxCell id="RP3RG8l773F7bLh9pg2W-278" value="" style="rhombus;whiteSpace=wrap;html=1;strokeWidth=3;strokeColor=#000000;" parent="1" vertex="1">
          <mxGeometry x="87" y="476" width="60" height="60" as="geometry" />
        </mxCell>
        <mxCell id="RP3RG8l773F7bLh9pg2W-279" value="" style="endArrow=none;html=1;rounded=0;strokeWidth=11;entryX=0.5;entryY=1;entryDx=0;entryDy=0;strokeColor=#67AB9F;opacity=30;" parent="1" target="RP3RG8l773F7bLh9pg2W-270" edge="1">
          <mxGeometry width="50" height="50" relative="1" as="geometry">
            <mxPoint x="147" y="505" as="sourcePoint" />
            <mxPoint x="287" y="494" as="targetPoint" />
          </mxGeometry>
        </mxCell>
        <mxCell id="RP3RG8l773F7bLh9pg2W-280" value="" style="ellipse;whiteSpace=wrap;html=1;aspect=fixed;container=0;rotation=90;strokeWidth=3;strokeColor=#000000;" parent="1" vertex="1">
          <mxGeometry x="421" y="583.5" width="60" height="60" as="geometry" />
        </mxCell>
        <mxCell id="RP3RG8l773F7bLh9pg2W-281" value="" style="ellipse;whiteSpace=wrap;html=1;aspect=fixed;container=0;rotation=90;strokeColor=#000000;strokeWidth=3;" parent="1" vertex="1">
          <mxGeometry x="581" y="633.5" width="60" height="60" as="geometry" />
        </mxCell>
        <mxCell id="RP3RG8l773F7bLh9pg2W-282" value="" style="ellipse;whiteSpace=wrap;html=1;aspect=fixed;container=0;rotation=90;strokeColor=#000000;strokeWidth=3;" parent="1" vertex="1">
          <mxGeometry x="581" y="529.5" width="60" height="60" as="geometry" />
        </mxCell>
        <mxCell id="RP3RG8l773F7bLh9pg2W-283" value="" style="ellipse;whiteSpace=wrap;html=1;aspect=fixed;container=0;rotation=90;strokeColor=#000000;strokeWidth=3;" parent="1" vertex="1">
          <mxGeometry x="581" y="433.5" width="60" height="60" as="geometry" />
        </mxCell>
        <mxCell id="RP3RG8l773F7bLh9pg2W-284" value="" style="rhombus;whiteSpace=wrap;html=1;strokeWidth=3;strokeColor=#000000;" parent="1" vertex="1">
          <mxGeometry x="421" y="484.5" width="60" height="60" as="geometry" />
        </mxCell>
        <mxCell id="RP3RG8l773F7bLh9pg2W-285" value="" style="ellipse;whiteSpace=wrap;html=1;aspect=fixed;container=0;rotation=90;strokeWidth=3;strokeColor=#000000;" parent="1" vertex="1">
          <mxGeometry x="421" y="385" width="60" height="60" as="geometry" />
        </mxCell>
        <mxCell id="RP3RG8l773F7bLh9pg2W-286" value="" style="verticalLabelPosition=bottom;verticalAlign=top;html=1;shape=mxgraph.basic.polygon;polyCoords=[[0.25,0],[0.75,0],[1,0.25],[1,0.75],[0.8,1],[0.25,1],[0,0.75],[0,0.25]];polyline=0;strokeWidth=3;strokeColor=#000000;" parent="1" vertex="1">
          <mxGeometry x="421" y="675" width="60" height="60" as="geometry" />
        </mxCell>
        <mxCell id="RP3RG8l773F7bLh9pg2W-287" value="" style="endArrow=none;html=1;rounded=0;exitX=0.5;exitY=0;exitDx=0;exitDy=0;strokeWidth=11;entryX=0.5;entryY=1;entryDx=0;entryDy=0;strokeColor=#FFD966;opacity=30;" parent="1" edge="1">
          <mxGeometry width="50" height="50" relative="1" as="geometry">
            <mxPoint x="481" y="615" as="sourcePoint" />
            <mxPoint x="581" y="561" as="targetPoint" />
          </mxGeometry>
        </mxCell>
        <mxCell id="RP3RG8l773F7bLh9pg2W-288" value="" style="endArrow=none;html=1;rounded=0;strokeWidth=11;entryX=0.5;entryY=1;entryDx=0;entryDy=0;exitX=0.5;exitY=0;exitDx=0;exitDy=0;strokeColor=#67AB9F;opacity=30;" parent="1" edge="1">
          <mxGeometry width="50" height="50" relative="1" as="geometry">
            <mxPoint x="481" y="715" as="sourcePoint" />
            <mxPoint x="581" y="665" as="targetPoint" />
          </mxGeometry>
        </mxCell>
        <mxCell id="RP3RG8l773F7bLh9pg2W-289" value="" style="endArrow=none;html=1;rounded=0;strokeWidth=11;entryX=0.5;entryY=1;entryDx=0;entryDy=0;exitX=0.5;exitY=0;exitDx=0;exitDy=0;strokeColor=#67AB9F;opacity=30;" parent="1" edge="1">
          <mxGeometry width="50" height="50" relative="1" as="geometry">
            <mxPoint x="481" y="715" as="sourcePoint" />
            <mxPoint x="581" y="561" as="targetPoint" />
          </mxGeometry>
        </mxCell>
        <mxCell id="RP3RG8l773F7bLh9pg2W-290" value="" style="endArrow=none;html=1;rounded=0;exitX=0.5;exitY=0;exitDx=0;exitDy=0;strokeWidth=11;entryX=0.5;entryY=1;entryDx=0;entryDy=0;fillColor=#d5e8d4;strokeColor=#FFD966;opacity=30;" parent="1" edge="1">
          <mxGeometry width="50" height="50" relative="1" as="geometry">
            <mxPoint x="481" y="615" as="sourcePoint" />
            <mxPoint x="581" y="665" as="targetPoint" />
          </mxGeometry>
        </mxCell>
        <mxCell id="RP3RG8l773F7bLh9pg2W-291" value="" style="endArrow=none;html=1;rounded=0;strokeWidth=11;entryX=0.5;entryY=1;entryDx=0;entryDy=0;strokeColor=#67AB9F;opacity=30;" parent="1" edge="1">
          <mxGeometry width="50" height="50" relative="1" as="geometry">
            <mxPoint x="481" y="515" as="sourcePoint" />
            <mxPoint x="581" y="561" as="targetPoint" />
          </mxGeometry>
        </mxCell>
        <mxCell id="RP3RG8l773F7bLh9pg2W-292" value="" style="endArrow=none;html=1;rounded=0;exitX=1.059;exitY=0.525;exitDx=0;exitDy=0;strokeWidth=11;entryX=0.5;entryY=1;entryDx=0;entryDy=0;strokeColor=#67AB9F;opacity=30;exitPerimeter=0;" parent="1" source="RP3RG8l773F7bLh9pg2W-276" target="RP3RG8l773F7bLh9pg2W-271" edge="1">
          <mxGeometry width="50" height="50" relative="1" as="geometry">
            <mxPoint x="157" y="515" as="sourcePoint" />
            <mxPoint x="257" y="465" as="targetPoint" />
          </mxGeometry>
        </mxCell>
        <mxCell id="RP3RG8l773F7bLh9pg2W-293" value="" style="endArrow=none;html=1;rounded=0;exitX=0.5;exitY=0;exitDx=0;exitDy=0;strokeWidth=11;entryX=0.5;entryY=1;entryDx=0;entryDy=0;strokeColor=#FFD966;opacity=30;" parent="1" source="RP3RG8l773F7bLh9pg2W-285" target="RP3RG8l773F7bLh9pg2W-283" edge="1">
          <mxGeometry width="50" height="50" relative="1" as="geometry">
            <mxPoint x="491" y="425" as="sourcePoint" />
            <mxPoint x="591" y="371" as="targetPoint" />
          </mxGeometry>
        </mxCell>
        <mxCell id="RP3RG8l773F7bLh9pg2W-294" value="" style="endArrow=none;html=1;rounded=0;strokeWidth=11;entryX=0.5;entryY=1;entryDx=0;entryDy=0;strokeColor=#67AB9F;opacity=30;exitX=1;exitY=0.5;exitDx=0;exitDy=0;" parent="1" source="RP3RG8l773F7bLh9pg2W-284" target="RP3RG8l773F7bLh9pg2W-283" edge="1">
          <mxGeometry width="50" height="50" relative="1" as="geometry">
            <mxPoint x="491" y="525" as="sourcePoint" />
            <mxPoint x="591" y="571" as="targetPoint" />
          </mxGeometry>
        </mxCell>
        <mxCell id="RP3RG8l773F7bLh9pg2W-295" value="" style="ellipse;whiteSpace=wrap;html=1;aspect=fixed;container=0;rotation=90;strokeWidth=3;strokeColor=#000000;" parent="1" vertex="1">
          <mxGeometry x="87" y="1104" width="60" height="60" as="geometry" />
        </mxCell>
        <mxCell id="RP3RG8l773F7bLh9pg2W-296" value="" style="ellipse;whiteSpace=wrap;html=1;aspect=fixed;container=0;rotation=90;strokeWidth=3;strokeColor=#000000;" parent="1" vertex="1">
          <mxGeometry x="87" y="1004" width="60" height="60" as="geometry" />
        </mxCell>
        <mxCell id="RP3RG8l773F7bLh9pg2W-297" value="" style="ellipse;whiteSpace=wrap;html=1;aspect=fixed;container=0;rotation=90;strokeWidth=3;" parent="1" vertex="1">
          <mxGeometry x="247" y="1054" width="60" height="60" as="geometry" />
        </mxCell>
        <mxCell id="RP3RG8l773F7bLh9pg2W-298" value="" style="ellipse;whiteSpace=wrap;html=1;aspect=fixed;container=0;rotation=90;strokeWidth=3;" parent="1" vertex="1">
          <mxGeometry x="247" y="950" width="60" height="60" as="geometry" />
        </mxCell>
        <mxCell id="RP3RG8l773F7bLh9pg2W-299" value="" style="ellipse;whiteSpace=wrap;html=1;aspect=fixed;container=0;rotation=90;strokeWidth=3;" parent="1" vertex="1">
          <mxGeometry x="247" y="854" width="60" height="60" as="geometry" />
        </mxCell>
        <mxCell id="RP3RG8l773F7bLh9pg2W-300" value="" style="endArrow=none;html=1;rounded=0;exitX=1;exitY=0.5;exitDx=0;exitDy=0;strokeWidth=9;entryX=0.5;entryY=1;entryDx=0;entryDy=0;strokeColor=#67AB9F;opacity=30;" parent="1" target="RP3RG8l773F7bLh9pg2W-299" edge="1">
          <mxGeometry width="50" height="50" relative="1" as="geometry">
            <mxPoint x="147" y="934" as="sourcePoint" />
            <mxPoint x="268" y="994" as="targetPoint" />
          </mxGeometry>
        </mxCell>
        <mxCell id="RP3RG8l773F7bLh9pg2W-301" value="" style="endArrow=none;html=1;rounded=0;exitX=0.5;exitY=0;exitDx=0;exitDy=0;strokeWidth=10;entryX=0.5;entryY=1;entryDx=0;entryDy=0;strokeColor=#FFD966;opacity=30;" parent="1" source="RP3RG8l773F7bLh9pg2W-296" target="RP3RG8l773F7bLh9pg2W-298" edge="1">
          <mxGeometry width="50" height="50" relative="1" as="geometry">
            <mxPoint x="137" y="1054" as="sourcePoint" />
            <mxPoint x="258" y="1119" as="targetPoint" />
          </mxGeometry>
        </mxCell>
        <mxCell id="RP3RG8l773F7bLh9pg2W-302" value="" style="endArrow=none;html=1;rounded=0;strokeWidth=10;entryX=0.5;entryY=1;entryDx=0;entryDy=0;exitX=0.5;exitY=0;exitDx=0;exitDy=0;strokeColor=#FFD966;opacity=30;" parent="1" source="RP3RG8l773F7bLh9pg2W-295" target="RP3RG8l773F7bLh9pg2W-297" edge="1">
          <mxGeometry width="50" height="50" relative="1" as="geometry">
            <mxPoint x="178" y="1189" as="sourcePoint" />
            <mxPoint x="289" y="1149" as="targetPoint" />
          </mxGeometry>
        </mxCell>
        <mxCell id="RP3RG8l773F7bLh9pg2W-303" value="" style="endArrow=none;html=1;rounded=0;strokeWidth=10;entryX=0.5;entryY=1;entryDx=0;entryDy=0;exitX=0.5;exitY=0;exitDx=0;exitDy=0;strokeColor=#FFD966;opacity=30;" parent="1" source="RP3RG8l773F7bLh9pg2W-295" target="RP3RG8l773F7bLh9pg2W-298" edge="1">
          <mxGeometry width="50" height="50" relative="1" as="geometry">
            <mxPoint x="137" y="1145" as="sourcePoint" />
            <mxPoint x="258" y="1094" as="targetPoint" />
          </mxGeometry>
        </mxCell>
        <mxCell id="RP3RG8l773F7bLh9pg2W-304" value="" style="verticalLabelPosition=bottom;verticalAlign=top;html=1;shape=mxgraph.basic.polygon;polyCoords=[[0.25,0],[0.75,0],[1,0.25],[1,0.75],[0.8,1],[0.25,1],[0,0.75],[0,0.25]];polyline=0;strokeWidth=3;strokeColor=#000000;" parent="1" vertex="1">
          <mxGeometry x="87" y="805" width="60" height="60" as="geometry" />
        </mxCell>
        <mxCell id="RP3RG8l773F7bLh9pg2W-305" value="" style="endArrow=none;html=1;rounded=0;exitX=0.5;exitY=0;exitDx=0;exitDy=0;strokeWidth=4;entryX=0.5;entryY=1;entryDx=0;entryDy=0;fillColor=#d5e8d4;strokeColor=#000000;opacity=30;dashed=1;dashPattern=1 1;" parent="1" source="RP3RG8l773F7bLh9pg2W-296" target="RP3RG8l773F7bLh9pg2W-297" edge="1">
          <mxGeometry width="50" height="50" relative="1" as="geometry">
            <mxPoint x="157" y="1044" as="sourcePoint" />
            <mxPoint x="257" y="990" as="targetPoint" />
          </mxGeometry>
        </mxCell>
        <mxCell id="RP3RG8l773F7bLh9pg2W-306" value="" style="rhombus;whiteSpace=wrap;html=1;strokeWidth=3;strokeColor=#000000;" parent="1" vertex="1">
          <mxGeometry x="87" y="905" width="60" height="60" as="geometry" />
        </mxCell>
        <mxCell id="RP3RG8l773F7bLh9pg2W-307" value="" style="endArrow=none;html=1;rounded=0;strokeWidth=7;entryX=0.5;entryY=1;entryDx=0;entryDy=0;strokeColor=#67AB9F;opacity=30;" parent="1" target="RP3RG8l773F7bLh9pg2W-298" edge="1">
          <mxGeometry width="50" height="50" relative="1" as="geometry">
            <mxPoint x="147" y="934" as="sourcePoint" />
            <mxPoint x="287" y="923" as="targetPoint" />
          </mxGeometry>
        </mxCell>
        <mxCell id="RP3RG8l773F7bLh9pg2W-308" value="" style="ellipse;whiteSpace=wrap;html=1;aspect=fixed;container=0;rotation=90;strokeWidth=3;strokeColor=#000000;" parent="1" vertex="1">
          <mxGeometry x="421" y="1012.5" width="60" height="60" as="geometry" />
        </mxCell>
        <mxCell id="RP3RG8l773F7bLh9pg2W-309" value="" style="ellipse;whiteSpace=wrap;html=1;aspect=fixed;container=0;rotation=90;strokeColor=#000000;strokeWidth=3;" parent="1" vertex="1">
          <mxGeometry x="581" y="1062.5" width="60" height="60" as="geometry" />
        </mxCell>
        <mxCell id="RP3RG8l773F7bLh9pg2W-310" value="" style="ellipse;whiteSpace=wrap;html=1;aspect=fixed;container=0;rotation=90;strokeColor=#000000;strokeWidth=3;" parent="1" vertex="1">
          <mxGeometry x="581" y="958.5" width="60" height="60" as="geometry" />
        </mxCell>
        <mxCell id="RP3RG8l773F7bLh9pg2W-311" value="" style="ellipse;whiteSpace=wrap;html=1;aspect=fixed;container=0;rotation=90;strokeColor=#000000;strokeWidth=3;" parent="1" vertex="1">
          <mxGeometry x="581" y="862.5" width="60" height="60" as="geometry" />
        </mxCell>
        <mxCell id="RP3RG8l773F7bLh9pg2W-312" value="" style="rhombus;whiteSpace=wrap;html=1;strokeWidth=3;strokeColor=#000000;" parent="1" vertex="1">
          <mxGeometry x="421" y="913.5" width="60" height="60" as="geometry" />
        </mxCell>
        <mxCell id="RP3RG8l773F7bLh9pg2W-313" value="" style="ellipse;whiteSpace=wrap;html=1;aspect=fixed;container=0;rotation=90;strokeWidth=3;strokeColor=#000000;" parent="1" vertex="1">
          <mxGeometry x="421" y="814" width="60" height="60" as="geometry" />
        </mxCell>
        <mxCell id="RP3RG8l773F7bLh9pg2W-314" value="" style="verticalLabelPosition=bottom;verticalAlign=top;html=1;shape=mxgraph.basic.polygon;polyCoords=[[0.25,0],[0.75,0],[1,0.25],[1,0.75],[0.8,1],[0.25,1],[0,0.75],[0,0.25]];polyline=0;strokeWidth=3;strokeColor=#000000;" parent="1" vertex="1">
          <mxGeometry x="421" y="1104" width="60" height="60" as="geometry" />
        </mxCell>
        <mxCell id="RP3RG8l773F7bLh9pg2W-315" value="" style="endArrow=none;html=1;rounded=0;exitX=0.989;exitY=0.446;exitDx=0;exitDy=0;strokeWidth=10;entryX=0.5;entryY=1;entryDx=0;entryDy=0;strokeColor=#67AB9F;opacity=30;exitPerimeter=0;" parent="1" source="RP3RG8l773F7bLh9pg2W-304" target="RP3RG8l773F7bLh9pg2W-299" edge="1">
          <mxGeometry width="50" height="50" relative="1" as="geometry">
            <mxPoint x="157" y="944" as="sourcePoint" />
            <mxPoint x="257" y="894" as="targetPoint" />
          </mxGeometry>
        </mxCell>
        <mxCell id="RP3RG8l773F7bLh9pg2W-318" style="edgeStyle=none;rounded=0;orthogonalLoop=1;jettySize=auto;html=1;exitX=0.75;exitY=1;exitDx=0;exitDy=0;" parent="1" source="RP3RG8l773F7bLh9pg2W-317" target="RP3RG8l773F7bLh9pg2W-317" edge="1">
          <mxGeometry relative="1" as="geometry" />
        </mxCell>
        <mxCell id="RP3RG8l773F7bLh9pg2W-321" style="edgeStyle=none;rounded=0;orthogonalLoop=1;jettySize=auto;html=1;exitX=0.75;exitY=1;exitDx=0;exitDy=0;" parent="1" edge="1">
          <mxGeometry relative="1" as="geometry">
            <mxPoint x="374.2089473684209" y="1046.48" as="sourcePoint" />
            <mxPoint x="374.2089473684209" y="1046.48" as="targetPoint" />
          </mxGeometry>
        </mxCell>
        <mxCell id="RP3RG8l773F7bLh9pg2W-325" style="edgeStyle=none;rounded=0;orthogonalLoop=1;jettySize=auto;html=1;exitX=0.75;exitY=0;exitDx=0;exitDy=0;" parent="1" edge="1">
          <mxGeometry relative="1" as="geometry">
            <mxPoint x="373.628947368421" y="912.9999999999998" as="sourcePoint" />
            <mxPoint x="373.628947368421" y="912.9999999999998" as="targetPoint" />
          </mxGeometry>
        </mxCell>
        <mxCell id="RP3RG8l773F7bLh9pg2W-326" value="" style="endArrow=none;html=1;rounded=0;exitX=1;exitY=0.5;exitDx=0;exitDy=0;strokeWidth=9;entryX=0.5;entryY=1;entryDx=0;entryDy=0;strokeColor=#67AB9F;opacity=30;" parent="1" source="RP3RG8l773F7bLh9pg2W-312" target="RP3RG8l773F7bLh9pg2W-311" edge="1">
          <mxGeometry width="50" height="50" relative="1" as="geometry">
            <mxPoint x="481" y="947" as="sourcePoint" />
            <mxPoint x="581" y="897" as="targetPoint" />
          </mxGeometry>
        </mxCell>
        <mxCell id="RP3RG8l773F7bLh9pg2W-327" value="" style="endArrow=none;html=1;rounded=0;exitX=0.5;exitY=0;exitDx=0;exitDy=0;strokeWidth=10;entryX=0.5;entryY=1;entryDx=0;entryDy=0;strokeColor=#FFD966;opacity=30;" parent="1" source="RP3RG8l773F7bLh9pg2W-308" target="RP3RG8l773F7bLh9pg2W-310" edge="1">
          <mxGeometry width="50" height="50" relative="1" as="geometry">
            <mxPoint x="481" y="1047" as="sourcePoint" />
            <mxPoint x="581" y="993" as="targetPoint" />
          </mxGeometry>
        </mxCell>
        <mxCell id="RP3RG8l773F7bLh9pg2W-328" value="" style="endArrow=none;html=1;rounded=0;strokeWidth=10;entryX=0.5;entryY=1;entryDx=0;entryDy=0;exitX=0.979;exitY=0.498;exitDx=0;exitDy=0;strokeColor=#67AB9F;opacity=30;exitPerimeter=0;" parent="1" source="RP3RG8l773F7bLh9pg2W-314" target="RP3RG8l773F7bLh9pg2W-309" edge="1">
          <mxGeometry width="50" height="50" relative="1" as="geometry">
            <mxPoint x="481" y="1147" as="sourcePoint" />
            <mxPoint x="581" y="1097" as="targetPoint" />
          </mxGeometry>
        </mxCell>
        <mxCell id="RP3RG8l773F7bLh9pg2W-329" value="" style="endArrow=none;html=1;rounded=0;strokeWidth=10;entryX=0.5;entryY=1;entryDx=0;entryDy=0;exitX=0.992;exitY=0.498;exitDx=0;exitDy=0;strokeColor=#67AB9F;opacity=30;exitPerimeter=0;" parent="1" source="RP3RG8l773F7bLh9pg2W-314" target="RP3RG8l773F7bLh9pg2W-310" edge="1">
          <mxGeometry width="50" height="50" relative="1" as="geometry">
            <mxPoint x="481" y="1147" as="sourcePoint" />
            <mxPoint x="581" y="993" as="targetPoint" />
          </mxGeometry>
        </mxCell>
        <mxCell id="RP3RG8l773F7bLh9pg2W-330" value="" style="endArrow=none;html=1;rounded=0;exitX=0.462;exitY=0.019;exitDx=0;exitDy=0;strokeWidth=4;entryX=0.5;entryY=1;entryDx=0;entryDy=0;fillColor=#d5e8d4;strokeColor=#000000;opacity=30;dashed=1;dashPattern=1 1;exitPerimeter=0;" parent="1" source="RP3RG8l773F7bLh9pg2W-308" target="RP3RG8l773F7bLh9pg2W-309" edge="1">
          <mxGeometry width="50" height="50" relative="1" as="geometry">
            <mxPoint x="481" y="1047" as="sourcePoint" />
            <mxPoint x="581" y="1097" as="targetPoint" />
          </mxGeometry>
        </mxCell>
        <mxCell id="RP3RG8l773F7bLh9pg2W-331" value="" style="endArrow=none;html=1;rounded=0;strokeWidth=7;entryX=0.5;entryY=1;entryDx=0;entryDy=0;strokeColor=#67AB9F;opacity=30;exitX=1;exitY=0.5;exitDx=0;exitDy=0;" parent="1" source="RP3RG8l773F7bLh9pg2W-312" target="RP3RG8l773F7bLh9pg2W-310" edge="1">
          <mxGeometry width="50" height="50" relative="1" as="geometry">
            <mxPoint x="481" y="947" as="sourcePoint" />
            <mxPoint x="581" y="993" as="targetPoint" />
          </mxGeometry>
        </mxCell>
        <mxCell id="RP3RG8l773F7bLh9pg2W-332" value="" style="endArrow=none;html=1;rounded=0;exitX=0.5;exitY=0;exitDx=0;exitDy=0;strokeWidth=10;entryX=0.5;entryY=1;entryDx=0;entryDy=0;strokeColor=#FFD966;opacity=30;" parent="1" source="RP3RG8l773F7bLh9pg2W-313" target="RP3RG8l773F7bLh9pg2W-311" edge="1">
          <mxGeometry width="50" height="50" relative="1" as="geometry">
            <mxPoint x="485" y="850" as="sourcePoint" />
            <mxPoint x="581" y="897" as="targetPoint" />
          </mxGeometry>
        </mxCell>
        <mxCell id="RP3RG8l773F7bLh9pg2W-335" value="" style="rounded=1;whiteSpace=wrap;html=1;arcSize=26;gradientColor=none;gradientDirection=north;fillColor=#FFFFFF;" parent="1" vertex="1">
          <mxGeometry x="474" y="1195" width="140" height="120" as="geometry" />
        </mxCell>
        <mxCell id="RP3RG8l773F7bLh9pg2W-336" value="&lt;font color=&quot;#ffd966&quot; style=&quot;font-size: 30px;&quot;&gt;$$\Delta G_{intra}&amp;nbsp;&lt;br&gt;$$&lt;/font&gt;" style="text;html=1;strokeColor=none;fillColor=none;align=center;verticalAlign=middle;whiteSpace=wrap;rounded=0;movable=1;resizable=1;rotatable=1;deletable=1;editable=1;locked=0;connectable=1;container=0;labelBorderColor=none;labelBackgroundColor=none;strokeWidth=1;" parent="1" vertex="1">
          <mxGeometry x="484" y="1205" width="122.21" height="30" as="geometry" />
        </mxCell>
        <mxCell id="RP3RG8l773F7bLh9pg2W-337" value="&lt;font color=&quot;#67ab9f&quot; style=&quot;font-size: 30px;&quot;&gt;$$\Delta{G_{extra}}$$&lt;/font&gt;" style="text;html=1;strokeColor=none;fillColor=none;align=center;verticalAlign=middle;whiteSpace=wrap;rounded=0;movable=1;resizable=1;rotatable=1;deletable=1;editable=1;locked=0;connectable=1;container=0;" parent="1" vertex="1">
          <mxGeometry x="484" y="1270" width="125.42" height="30" as="geometry" />
        </mxCell>
        <mxCell id="RP3RG8l773F7bLh9pg2W-348" value="" style="ellipse;whiteSpace=wrap;html=1;aspect=fixed;fillColor=#e1d5e7;strokeColor=#9673a6;container=0;" parent="1" vertex="1">
          <mxGeometry x="109.49888888888904" y="340" width="15" height="15" as="geometry" />
        </mxCell>
        <mxCell id="RP3RG8l773F7bLh9pg2W-349" value="" style="ellipse;whiteSpace=wrap;html=1;aspect=fixed;fillColor=#ffe6cc;strokeColor=#d79b00;container=0;" parent="1" vertex="1">
          <mxGeometry x="269.49888888888904" y="385" width="15" height="15" as="geometry" />
        </mxCell>
        <mxCell id="RP3RG8l773F7bLh9pg2W-350" value="" style="ellipse;whiteSpace=wrap;html=1;aspect=fixed;fillColor=#ffe6cc;strokeColor=#d79b00;container=0;" parent="1" vertex="1">
          <mxGeometry x="603.498888888889" y="385" width="15" height="15" as="geometry" />
        </mxCell>
        <mxCell id="RP3RG8l773F7bLh9pg2W-351" value="" style="ellipse;whiteSpace=wrap;html=1;aspect=fixed;fillColor=#e1d5e7;strokeColor=#9673a6;container=0;" parent="1" vertex="1">
          <mxGeometry x="443.49888888888904" y="340" width="15" height="15" as="geometry" />
        </mxCell>
        <mxCell id="RP3RG8l773F7bLh9pg2W-352" value="" style="ellipse;whiteSpace=wrap;html=1;aspect=fixed;fillColor=#e1d5e7;strokeColor=#9673a6;container=0;" parent="1" vertex="1">
          <mxGeometry x="109.49888888888904" y="770" width="15" height="15" as="geometry" />
        </mxCell>
        <mxCell id="RP3RG8l773F7bLh9pg2W-354" value="" style="ellipse;whiteSpace=wrap;html=1;aspect=fixed;fillColor=#e1d5e7;strokeColor=#9673a6;container=0;" parent="1" vertex="1">
          <mxGeometry x="443.49888888888904" y="770" width="15" height="15" as="geometry" />
        </mxCell>
        <mxCell id="RP3RG8l773F7bLh9pg2W-355" value="" style="ellipse;whiteSpace=wrap;html=1;aspect=fixed;fillColor=#ffe6cc;strokeColor=#d79b00;container=0;" parent="1" vertex="1">
          <mxGeometry x="269.49888888888904" y="815" width="15" height="15" as="geometry" />
        </mxCell>
        <mxCell id="RP3RG8l773F7bLh9pg2W-356" value="" style="ellipse;whiteSpace=wrap;html=1;aspect=fixed;fillColor=#ffe6cc;strokeColor=#d79b00;container=0;" parent="1" vertex="1">
          <mxGeometry x="603.498888888889" y="815" width="15" height="15" as="geometry" />
        </mxCell>
        <mxCell id="RP3RG8l773F7bLh9pg2W-394" value="&lt;font style=&quot;font-size: 30px;&quot; face=&quot;Comic Sans MS&quot;&gt;&lt;u style=&quot;&quot;&gt;&lt;b&gt;&lt;i&gt;Cas&amp;nbsp;1&lt;/i&gt;&lt;/b&gt;&lt;/u&gt;&lt;/font&gt;" style="text;html=1;strokeColor=none;fillColor=none;align=center;verticalAlign=middle;whiteSpace=wrap;rounded=0;" parent="1" vertex="1">
          <mxGeometry x="147" y="290" width="112.5" height="30" as="geometry" />
        </mxCell>
        <mxCell id="RP3RG8l773F7bLh9pg2W-395" value="&lt;font style=&quot;font-size: 30px;&quot; face=&quot;Comic Sans MS&quot;&gt;&lt;u style=&quot;&quot;&gt;&lt;b style=&quot;&quot;&gt;&lt;i&gt;Cas 2&lt;/i&gt;&lt;/b&gt;&lt;/u&gt;&lt;/font&gt;" style="text;html=1;strokeColor=none;fillColor=none;align=center;verticalAlign=middle;whiteSpace=wrap;rounded=0;" parent="1" vertex="1">
          <mxGeometry x="485" y="290" width="112.5" height="30" as="geometry" />
        </mxCell>
        <mxCell id="RP3RG8l773F7bLh9pg2W-398" value="&lt;h1&gt;&lt;font size=&quot;1&quot; face=&quot;Comic Sans MS&quot;&gt;&lt;b style=&quot;&quot;&gt;&lt;u style=&quot;font-size: 35px;&quot;&gt;Influence des paires et de liens&lt;/u&gt;&lt;/b&gt;&lt;/font&gt;&lt;/h1&gt;" style="text;html=1;strokeColor=none;fillColor=none;align=center;verticalAlign=middle;whiteSpace=wrap;rounded=0;" parent="1" vertex="1">
          <mxGeometry x="-586" y="243" width="325.63" height="30" as="geometry" />
        </mxCell>
        <mxCell id="RP3RG8l773F7bLh9pg2W-399" value="&lt;h1&gt;&lt;font size=&quot;1&quot; face=&quot;Comic Sans MS&quot;&gt;&lt;b style=&quot;&quot;&gt;&lt;u style=&quot;font-size: 35px;&quot;&gt;Partage viral potentiel&lt;/u&gt;&lt;/b&gt;&lt;/font&gt;&lt;/h1&gt;" style="text;html=1;strokeColor=none;fillColor=none;align=center;verticalAlign=middle;whiteSpace=wrap;rounded=0;" parent="1" vertex="1">
          <mxGeometry x="203.60000000000002" y="211" width="325.63" height="30" as="geometry" />
        </mxCell>
        <mxCell id="RP3RG8l773F7bLh9pg2W-402" value="" style="shape=flexArrow;endArrow=classic;startArrow=classic;html=1;rounded=0;entryX=1;entryY=0.5;entryDx=0;entryDy=0;width=14;endSize=2.912;endWidth=7.76;startWidth=7.76;startSize=3.932;fillColor=#FFD966;strokeColor=#d6b656;" parent="1" source="RP3RG8l773F7bLh9pg2W-267" target="RP3RG8l773F7bLh9pg2W-268" edge="1">
          <mxGeometry width="100" height="100" relative="1" as="geometry">
            <mxPoint x="24.5" y="743.5" as="sourcePoint" />
            <mxPoint x="124.5" y="643.5" as="targetPoint" />
          </mxGeometry>
        </mxCell>
        <mxCell id="RP3RG8l773F7bLh9pg2W-403" value="" style="shape=flexArrow;endArrow=classic;startArrow=classic;html=1;rounded=0;entryX=1;entryY=0.5;entryDx=0;entryDy=0;width=14;endSize=2.912;endWidth=7.76;startWidth=7.76;startSize=3.932;fillColor=#67AB9F;strokeColor=#548C82;" parent="1" edge="1">
          <mxGeometry width="100" height="100" relative="1" as="geometry">
            <mxPoint x="116.58" y="575" as="sourcePoint" />
            <mxPoint x="116.58" y="535" as="targetPoint" />
          </mxGeometry>
        </mxCell>
        <mxCell id="RP3RG8l773F7bLh9pg2W-404" value="" style="shape=flexArrow;endArrow=classic;startArrow=classic;html=1;rounded=0;entryX=1;entryY=0.5;entryDx=0;entryDy=0;width=14;endSize=2.912;endWidth=7.76;startWidth=7.76;startSize=3.932;fillColor=#67AB9F;strokeColor=#548C82;" parent="1" edge="1">
          <mxGeometry width="100" height="100" relative="1" as="geometry">
            <mxPoint x="116.57999999999998" y="475" as="sourcePoint" />
            <mxPoint x="116.57999999999998" y="435" as="targetPoint" />
          </mxGeometry>
        </mxCell>
        <mxCell id="RP3RG8l773F7bLh9pg2W-406" value="" style="shape=flexArrow;endArrow=classic;startArrow=classic;html=1;rounded=0;entryX=1;entryY=1;entryDx=0;entryDy=0;width=14;endSize=2.912;endWidth=7.76;startWidth=7.76;startSize=3.932;fillColor=#FFD966;strokeColor=#d6b656;exitX=0;exitY=1;exitDx=0;exitDy=0;" parent="1" source="RP3RG8l773F7bLh9pg2W-280" target="RP3RG8l773F7bLh9pg2W-285" edge="1">
          <mxGeometry width="100" height="100" relative="1" as="geometry">
            <mxPoint x="430" y="590" as="sourcePoint" />
            <mxPoint x="433.42" y="550" as="targetPoint" />
            <Array as="points">
              <mxPoint x="380" y="510" />
            </Array>
          </mxGeometry>
        </mxCell>
        <mxCell id="RP3RG8l773F7bLh9pg2W-171" value="" style="rounded=1;whiteSpace=wrap;html=1;arcSize=26;gradientColor=none;gradientDirection=north;fillColor=#FFFFFF;" parent="1" vertex="1">
          <mxGeometry x="315" y="481" width="100" height="50" as="geometry" />
        </mxCell>
        <mxCell id="RP3RG8l773F7bLh9pg2W-317" value="&lt;font color=&quot;#ffd966&quot; style=&quot;font-size: 30px;&quot;&gt;$$G_{intra}$$&lt;/font&gt;" style="text;html=1;strokeColor=none;fillColor=none;align=center;verticalAlign=middle;whiteSpace=wrap;rounded=0;movable=1;resizable=1;rotatable=1;deletable=1;editable=1;locked=0;connectable=1;container=0;" parent="1" vertex="1">
          <mxGeometry x="336.99736842105267" y="490" width="56.84210526315789" height="30" as="geometry" />
        </mxCell>
        <mxCell id="RP3RG8l773F7bLh9pg2W-407" value="" style="shape=flexArrow;endArrow=classic;startArrow=classic;html=1;rounded=0;entryX=0;entryY=1;entryDx=0;entryDy=0;width=14;endSize=2.912;endWidth=7.76;startWidth=7.76;startSize=3.932;fillColor=#67AB9F;strokeColor=#548C82;exitX=-0.039;exitY=0.312;exitDx=0;exitDy=0;exitPerimeter=0;" parent="1" source="RP3RG8l773F7bLh9pg2W-286" target="RP3RG8l773F7bLh9pg2W-284" edge="1">
          <mxGeometry width="100" height="100" relative="1" as="geometry">
            <mxPoint x="421" y="693.5" as="sourcePoint" />
            <mxPoint x="421" y="537.5" as="targetPoint" />
            <Array as="points">
              <mxPoint x="370" y="600" />
            </Array>
          </mxGeometry>
        </mxCell>
        <mxCell id="RP3RG8l773F7bLh9pg2W-172" value="" style="rounded=1;whiteSpace=wrap;html=1;arcSize=26;gradientColor=none;gradientDirection=north;fillColor=#FFFFFF;" parent="1" vertex="1">
          <mxGeometry x="310.42" y="580" width="100" height="50" as="geometry" />
        </mxCell>
        <mxCell id="RP3RG8l773F7bLh9pg2W-316" value="&lt;font color=&quot;#67ab9f&quot; style=&quot;font-size: 30px;&quot;&gt;$$G_{extra}$$&lt;/font&gt;" style="text;html=1;strokeColor=none;fillColor=none;align=center;verticalAlign=middle;whiteSpace=wrap;rounded=0;movable=1;resizable=1;rotatable=1;deletable=1;editable=1;locked=0;connectable=1;container=0;" parent="1" vertex="1">
          <mxGeometry x="334.99736842105267" y="588.5" width="56.84210526315789" height="30" as="geometry" />
        </mxCell>
        <mxCell id="RP3RG8l773F7bLh9pg2W-408" value="" style="shape=flexArrow;endArrow=classic;startArrow=classic;html=1;rounded=0;entryX=1;entryY=0.5;entryDx=0;entryDy=0;width=14;endSize=2.912;endWidth=7.76;startWidth=7.76;startSize=3.932;fillColor=#67AB9F;strokeColor=#548C82;" parent="1" edge="1">
          <mxGeometry width="100" height="100" relative="1" as="geometry">
            <mxPoint x="450.79999999999995" y="584.5" as="sourcePoint" />
            <mxPoint x="450.79999999999995" y="544.5" as="targetPoint" />
          </mxGeometry>
        </mxCell>
        <mxCell id="RP3RG8l773F7bLh9pg2W-410" value="" style="shape=flexArrow;endArrow=classic;startArrow=classic;html=1;rounded=0;entryX=1;entryY=0.5;entryDx=0;entryDy=0;width=14;endSize=2.912;endWidth=7.76;startWidth=7.76;startSize=3.932;fillColor=#67AB9F;strokeColor=#548C82;" parent="1" edge="1">
          <mxGeometry width="100" height="100" relative="1" as="geometry">
            <mxPoint x="450.79999999999995" y="484.5" as="sourcePoint" />
            <mxPoint x="450.79999999999995" y="444.5" as="targetPoint" />
          </mxGeometry>
        </mxCell>
        <mxCell id="RP3RG8l773F7bLh9pg2W-411" value="" style="shape=flexArrow;endArrow=classic;startArrow=classic;html=1;rounded=0;width=14;endSize=2.912;endWidth=7.76;startWidth=7.76;startSize=3.932;fillColor=#67AB9F;strokeColor=#548C82;" parent="1" edge="1">
          <mxGeometry width="100" height="100" relative="1" as="geometry">
            <mxPoint x="450.65999999999997" y="676.88" as="sourcePoint" />
            <mxPoint x="451" y="640" as="targetPoint" />
          </mxGeometry>
        </mxCell>
        <mxCell id="RP3RG8l773F7bLh9pg2W-412" value="" style="shape=flexArrow;endArrow=classic;startArrow=classic;html=1;rounded=0;entryX=0.255;entryY=0.988;entryDx=0;entryDy=0;width=14;endSize=2.912;endWidth=7.76;startWidth=7.76;startSize=3.932;fillColor=#67AB9F;strokeColor=#548C82;exitX=0;exitY=1;exitDx=0;exitDy=0;entryPerimeter=0;" parent="1" source="RP3RG8l773F7bLh9pg2W-268" target="RP3RG8l773F7bLh9pg2W-276" edge="1">
          <mxGeometry width="100" height="100" relative="1" as="geometry">
            <mxPoint x="79" y="609" as="sourcePoint" />
            <mxPoint x="96" y="445" as="targetPoint" />
            <Array as="points">
              <mxPoint x="80" y="500" />
            </Array>
          </mxGeometry>
        </mxCell>
        <mxCell id="RP3RG8l773F7bLh9pg2W-413" value="" style="shape=flexArrow;endArrow=classic;startArrow=classic;html=1;rounded=0;entryX=-0.006;entryY=0.761;entryDx=0;entryDy=0;width=14;endSize=2.912;endWidth=7.76;startWidth=7.76;startSize=3.932;fillColor=#67AB9F;strokeColor=#548C82;exitX=0;exitY=1;exitDx=0;exitDy=0;entryPerimeter=0;" parent="1" source="RP3RG8l773F7bLh9pg2W-267" target="RP3RG8l773F7bLh9pg2W-276" edge="1">
          <mxGeometry width="100" height="100" relative="1" as="geometry">
            <mxPoint x="76" y="569" as="sourcePoint" />
            <mxPoint x="82" y="420" as="targetPoint" />
            <Array as="points">
              <mxPoint x="40" y="560" />
            </Array>
          </mxGeometry>
        </mxCell>
        <mxCell id="RP3RG8l773F7bLh9pg2W-416" value="" style="shape=flexArrow;endArrow=classic;startArrow=classic;html=1;rounded=0;entryX=1;entryY=0.5;entryDx=0;entryDy=0;width=4;endSize=2.912;endWidth=7.76;startWidth=7.76;startSize=3.932;fillColor=#FFD966;strokeColor=#d6b656;" parent="1" edge="1">
          <mxGeometry width="100" height="100" relative="1" as="geometry">
            <mxPoint x="117" y="1103" as="sourcePoint" />
            <mxPoint x="117" y="1063" as="targetPoint" />
          </mxGeometry>
        </mxCell>
        <mxCell id="RP3RG8l773F7bLh9pg2W-417" value="" style="shape=flexArrow;endArrow=classic;startArrow=classic;html=1;rounded=0;entryX=1;entryY=0.5;entryDx=0;entryDy=0;width=11;endSize=2.912;endWidth=7.76;startWidth=7.76;startSize=3.932;fillColor=#67AB9F;strokeColor=#548C82;" parent="1" edge="1">
          <mxGeometry width="100" height="100" relative="1" as="geometry">
            <mxPoint x="116.57999999999998" y="1003" as="sourcePoint" />
            <mxPoint x="116.57999999999998" y="963" as="targetPoint" />
          </mxGeometry>
        </mxCell>
        <mxCell id="RP3RG8l773F7bLh9pg2W-418" value="" style="shape=flexArrow;endArrow=classic;startArrow=classic;html=1;rounded=0;entryX=1;entryY=0.5;entryDx=0;entryDy=0;width=12;endSize=2.912;endWidth=7.76;startWidth=7.76;startSize=3.932;fillColor=#67AB9F;strokeColor=#548C82;" parent="1" edge="1">
          <mxGeometry width="100" height="100" relative="1" as="geometry">
            <mxPoint x="116.57999999999998" y="903" as="sourcePoint" />
            <mxPoint x="116.57999999999998" y="863" as="targetPoint" />
          </mxGeometry>
        </mxCell>
        <mxCell id="RP3RG8l773F7bLh9pg2W-419" value="" style="shape=flexArrow;endArrow=classic;startArrow=classic;html=1;rounded=0;entryX=1;entryY=1;entryDx=0;entryDy=0;width=13;endSize=2.912;endWidth=7.76;startWidth=7.76;startSize=3.932;fillColor=#FFD966;strokeColor=#d6b656;exitX=0;exitY=1;exitDx=0;exitDy=0;" parent="1" edge="1">
          <mxGeometry width="100" height="100" relative="1" as="geometry">
            <mxPoint x="430" y="1020" as="sourcePoint" />
            <mxPoint x="430" y="865" as="targetPoint" />
            <Array as="points">
              <mxPoint x="380" y="938" />
            </Array>
          </mxGeometry>
        </mxCell>
        <mxCell id="RP3RG8l773F7bLh9pg2W-420" value="" style="rounded=1;whiteSpace=wrap;html=1;arcSize=26;gradientColor=none;gradientDirection=north;fillColor=#FFFFFF;" parent="1" vertex="1">
          <mxGeometry x="291" y="908" width="122" height="50" as="geometry" />
        </mxCell>
        <mxCell id="RP3RG8l773F7bLh9pg2W-421" value="&lt;font color=&quot;#ffd966&quot; style=&quot;font-size: 30px;&quot;&gt;$$\Delta G_{intra}$$&lt;/font&gt;" style="text;html=1;strokeColor=none;fillColor=none;align=center;verticalAlign=middle;whiteSpace=wrap;rounded=0;movable=1;resizable=1;rotatable=1;deletable=1;editable=1;locked=0;connectable=1;container=0;" parent="1" vertex="1">
          <mxGeometry x="324" y="917" width="56.84210526315789" height="30" as="geometry" />
        </mxCell>
        <mxCell id="RP3RG8l773F7bLh9pg2W-422" value="" style="shape=flexArrow;endArrow=classic;startArrow=classic;html=1;rounded=0;entryX=0;entryY=1;entryDx=0;entryDy=0;width=10;endSize=2.912;endWidth=7.76;startWidth=7.76;startSize=3.932;fillColor=#67AB9F;strokeColor=#548C82;exitX=-0.039;exitY=0.312;exitDx=0;exitDy=0;exitPerimeter=0;" parent="1" edge="1">
          <mxGeometry width="100" height="100" relative="1" as="geometry">
            <mxPoint x="419" y="1122" as="sourcePoint" />
            <mxPoint x="436" y="958" as="targetPoint" />
            <Array as="points">
              <mxPoint x="370" y="1028" />
            </Array>
          </mxGeometry>
        </mxCell>
        <mxCell id="RP3RG8l773F7bLh9pg2W-423" value="" style="rounded=1;whiteSpace=wrap;html=1;arcSize=26;gradientColor=none;gradientDirection=north;fillColor=#FFFFFF;" parent="1" vertex="1">
          <mxGeometry x="291" y="1008" width="122" height="50" as="geometry" />
        </mxCell>
        <mxCell id="RP3RG8l773F7bLh9pg2W-424" value="&lt;font color=&quot;#67ab9f&quot; style=&quot;font-size: 30px;&quot;&gt;$$\Delta G_{extra}$$&lt;/font&gt;" style="text;html=1;strokeColor=none;fillColor=none;align=center;verticalAlign=middle;whiteSpace=wrap;rounded=0;movable=1;resizable=1;rotatable=1;deletable=1;editable=1;locked=0;connectable=1;container=0;" parent="1" vertex="1">
          <mxGeometry x="324" y="1017" width="56.84210526315789" height="30" as="geometry" />
        </mxCell>
        <mxCell id="RP3RG8l773F7bLh9pg2W-425" value="" style="shape=flexArrow;endArrow=classic;startArrow=classic;html=1;rounded=0;entryX=1;entryY=0.5;entryDx=0;entryDy=0;width=12;endSize=2.912;endWidth=7.76;startWidth=7.76;startSize=3.932;fillColor=#67AB9F;strokeColor=#548C82;" parent="1" edge="1">
          <mxGeometry width="100" height="100" relative="1" as="geometry">
            <mxPoint x="450.79999999999995" y="1012.5" as="sourcePoint" />
            <mxPoint x="450.79999999999995" y="972.5" as="targetPoint" />
          </mxGeometry>
        </mxCell>
        <mxCell id="RP3RG8l773F7bLh9pg2W-426" value="" style="shape=flexArrow;endArrow=classic;startArrow=classic;html=1;rounded=0;entryX=1;entryY=0.5;entryDx=0;entryDy=0;width=14;endSize=2.912;endWidth=7.76;startWidth=7.76;startSize=3.932;fillColor=#67AB9F;strokeColor=#548C82;" parent="1" edge="1">
          <mxGeometry width="100" height="100" relative="1" as="geometry">
            <mxPoint x="450.79999999999995" y="912.5" as="sourcePoint" />
            <mxPoint x="450.79999999999995" y="872.5" as="targetPoint" />
          </mxGeometry>
        </mxCell>
        <mxCell id="RP3RG8l773F7bLh9pg2W-427" value="" style="shape=flexArrow;endArrow=classic;startArrow=classic;html=1;rounded=0;width=4;endSize=2.912;endWidth=7.76;startWidth=7.76;startSize=3.932;fillColor=#67AB9F;strokeColor=#548C82;" parent="1" edge="1">
          <mxGeometry width="100" height="100" relative="1" as="geometry">
            <mxPoint x="450.65999999999997" y="1104.88" as="sourcePoint" />
            <mxPoint x="451" y="1068" as="targetPoint" />
          </mxGeometry>
        </mxCell>
        <mxCell id="RP3RG8l773F7bLh9pg2W-428" value="" style="shape=flexArrow;endArrow=classic;startArrow=classic;html=1;rounded=0;entryX=0.255;entryY=0.988;entryDx=0;entryDy=0;width=14;endSize=2.912;endWidth=7.76;startWidth=7.76;startSize=3.932;fillColor=#67AB9F;strokeColor=#548C82;exitX=0;exitY=1;exitDx=0;exitDy=0;entryPerimeter=0;" parent="1" edge="1">
          <mxGeometry width="100" height="100" relative="1" as="geometry">
            <mxPoint x="96" y="1012" as="sourcePoint" />
            <mxPoint x="102" y="863" as="targetPoint" />
            <Array as="points">
              <mxPoint x="80" y="928" />
            </Array>
          </mxGeometry>
        </mxCell>
        <mxCell id="RP3RG8l773F7bLh9pg2W-429" value="" style="shape=flexArrow;endArrow=classic;startArrow=classic;html=1;rounded=0;entryX=-0.006;entryY=0.761;entryDx=0;entryDy=0;width=12;endSize=2.912;endWidth=7.76;startWidth=7.76;startSize=3.932;fillColor=#67AB9F;strokeColor=#548C82;exitX=0;exitY=1;exitDx=0;exitDy=0;entryPerimeter=0;" parent="1" edge="1">
          <mxGeometry width="100" height="100" relative="1" as="geometry">
            <mxPoint x="96" y="1112" as="sourcePoint" />
            <mxPoint x="87" y="850" as="targetPoint" />
            <Array as="points">
              <mxPoint x="40" y="988" />
            </Array>
          </mxGeometry>
        </mxCell>
        <mxCell id="RP3RG8l773F7bLh9pg2W-438" value="" style="rounded=1;whiteSpace=wrap;html=1;strokeWidth=3;fillColor=#dae8fc;strokeColor=#000000;" parent="1" vertex="1">
          <mxGeometry x="181" y="1170" width="60" height="10" as="geometry" />
        </mxCell>
        <mxCell id="RP3RG8l773F7bLh9pg2W-439" value="" style="rounded=1;whiteSpace=wrap;html=1;strokeWidth=3;fillColor=#dae8fc;strokeColor=#000000;" parent="1" vertex="1">
          <mxGeometry x="180" y="1150" width="60" height="10" as="geometry" />
        </mxCell>
        <mxCell id="RP3RG8l773F7bLh9pg2W-440" value="" style="rounded=1;whiteSpace=wrap;html=1;strokeWidth=3;fillColor=#dae8fc;strokeColor=#000000;" parent="1" vertex="1">
          <mxGeometry x="511.75" y="1167" width="60" height="10" as="geometry" />
        </mxCell>
        <mxCell id="RP3RG8l773F7bLh9pg2W-441" value="" style="rounded=1;whiteSpace=wrap;html=1;strokeWidth=3;fillColor=#dae8fc;strokeColor=#000000;" parent="1" vertex="1">
          <mxGeometry x="510.75" y="1147" width="60" height="10" as="geometry" />
        </mxCell>
        <mxCell id="RP3RG8l773F7bLh9pg2W-442" value="&lt;font style=&quot;font-size: 30px;&quot;&gt;$$h_1$$&lt;/font&gt;" style="text;html=1;strokeColor=none;fillColor=none;align=center;verticalAlign=middle;whiteSpace=wrap;rounded=0;opacity=70;strokeWidth=3;" parent="1" vertex="1">
          <mxGeometry x="80.20999999999998" y="585" width="80" height="40" as="geometry" />
        </mxCell>
        <mxCell id="RP3RG8l773F7bLh9pg2W-443" value="&lt;font style=&quot;font-size: 30px;&quot;&gt;$$h_2$$&lt;/font&gt;" style="text;html=1;strokeColor=none;fillColor=none;align=center;verticalAlign=middle;whiteSpace=wrap;rounded=0;opacity=70;strokeWidth=3;" parent="1" vertex="1">
          <mxGeometry x="80.20999999999998" y="685" width="80" height="40" as="geometry" />
        </mxCell>
        <mxCell id="RP3RG8l773F7bLh9pg2W-444" value="&lt;font style=&quot;font-size: 30px;&quot;&gt;$$h_2$$&lt;/font&gt;" style="text;html=1;strokeColor=none;fillColor=none;align=center;verticalAlign=middle;whiteSpace=wrap;rounded=0;opacity=70;strokeWidth=3;" parent="1" vertex="1">
          <mxGeometry x="413.21" y="393.5" width="80" height="40" as="geometry" />
        </mxCell>
        <mxCell id="RP3RG8l773F7bLh9pg2W-445" value="&lt;font style=&quot;font-size: 30px;&quot;&gt;$$h_1$$&lt;/font&gt;" style="text;html=1;strokeColor=none;fillColor=none;align=center;verticalAlign=middle;whiteSpace=wrap;rounded=0;opacity=70;strokeWidth=3;" parent="1" vertex="1">
          <mxGeometry x="413.21" y="593.5" width="80" height="40" as="geometry" />
        </mxCell>
        <mxCell id="RP3RG8l773F7bLh9pg2W-447" value="&lt;font style=&quot;font-size: 30px;&quot;&gt;$$h_1$$&lt;/font&gt;" style="text;html=1;strokeColor=none;fillColor=none;align=center;verticalAlign=middle;whiteSpace=wrap;rounded=0;opacity=70;strokeWidth=3;" parent="1" vertex="1">
          <mxGeometry x="80.20999999999998" y="1014.25" width="80" height="40" as="geometry" />
        </mxCell>
        <mxCell id="RP3RG8l773F7bLh9pg2W-448" value="&lt;font style=&quot;font-size: 30px;&quot;&gt;$$h_2$$&lt;/font&gt;" style="text;html=1;strokeColor=none;fillColor=none;align=center;verticalAlign=middle;whiteSpace=wrap;rounded=0;opacity=70;strokeWidth=3;" parent="1" vertex="1">
          <mxGeometry x="80.20999999999998" y="1114.25" width="80" height="40" as="geometry" />
        </mxCell>
        <mxCell id="RP3RG8l773F7bLh9pg2W-449" value="&lt;font style=&quot;font-size: 30px;&quot;&gt;$$h_2$$&lt;/font&gt;" style="text;html=1;strokeColor=none;fillColor=none;align=center;verticalAlign=middle;whiteSpace=wrap;rounded=0;opacity=70;strokeWidth=3;" parent="1" vertex="1">
          <mxGeometry x="413.21" y="822.75" width="80" height="40" as="geometry" />
        </mxCell>
        <mxCell id="RP3RG8l773F7bLh9pg2W-450" value="&lt;font style=&quot;font-size: 30px;&quot;&gt;$$h_1$$&lt;/font&gt;" style="text;html=1;strokeColor=none;fillColor=none;align=center;verticalAlign=middle;whiteSpace=wrap;rounded=0;opacity=70;strokeWidth=3;" parent="1" vertex="1">
          <mxGeometry x="413.21" y="1022.75" width="80" height="40" as="geometry" />
        </mxCell>
        <mxCell id="RP3RG8l773F7bLh9pg2W-452" value="&lt;font style=&quot;font-size: 15px;&quot;&gt;&amp;nbsp;$$ \zeta A =&lt;br style=&quot;border-color: var(--border-color);&quot;&gt;\begin{pmatrix}&lt;br style=&quot;border-color: var(--border-color);&quot;&gt;0 &amp;amp;0&amp;amp;1&amp;nbsp; &amp;amp;0 \\&lt;br style=&quot;border-color: var(--border-color);&quot;&gt;0 &amp;amp;&amp;nbsp; 0&amp;amp; 1 &amp;amp; 1 \\&lt;br style=&quot;border-color: var(--border-color);&quot;&gt;1&amp;nbsp; &amp;amp;1 &amp;amp;0 &amp;amp;&amp;nbsp; 0&amp;nbsp; \\&lt;br style=&quot;border-color: var(--border-color);&quot;&gt;0&amp;nbsp; &amp;amp;1&amp;amp; 0 &amp;amp;&amp;nbsp; 0&amp;nbsp; \\&lt;br style=&quot;border-color: var(--border-color);&quot;&gt;\end{pmatrix}&lt;br style=&quot;border-color: var(--border-color);&quot;&gt;$$&lt;/font&gt;" style="text;whiteSpace=wrap;html=1;movable=1;resizable=1;rotatable=1;deletable=1;editable=1;locked=0;connectable=1;container=0;" parent="1" vertex="1">
          <mxGeometry x="-190" y="588.5" width="174.79" height="50" as="geometry" />
        </mxCell>
        <mxCell id="RP3RG8l773F7bLh9pg2W-457" value="&lt;font style=&quot;font-size: 15px;&quot;&gt;&amp;nbsp;$$ A =&lt;br style=&quot;border-color: var(--border-color);&quot;&gt;\begin{pmatrix}&lt;br style=&quot;border-color: var(--border-color);&quot;&gt;0 &amp;amp;0&amp;amp;1&amp;nbsp; &amp;amp;1 \\&lt;br style=&quot;border-color: var(--border-color);&quot;&gt;0 &amp;amp;&amp;nbsp; 0&amp;amp; 1 &amp;amp; 1 \\&lt;br style=&quot;border-color: var(--border-color);&quot;&gt;1&amp;nbsp; &amp;amp;1 &amp;amp;0 &amp;amp;&amp;nbsp; 0&amp;nbsp; \\&lt;br style=&quot;border-color: var(--border-color);&quot;&gt;1&amp;nbsp; &amp;amp;1&amp;amp; 0 &amp;amp;&amp;nbsp; 0&amp;nbsp; \\&lt;br style=&quot;border-color: var(--border-color);&quot;&gt;\end{pmatrix}&lt;br style=&quot;border-color: var(--border-color);&quot;&gt;$$&lt;/font&gt;" style="text;whiteSpace=wrap;html=1;movable=1;resizable=1;rotatable=1;deletable=1;editable=1;locked=0;connectable=1;container=0;" parent="1" vertex="1">
          <mxGeometry x="-750" y="588.5" width="174.79" height="50" as="geometry" />
        </mxCell>
        <mxCell id="RP3RG8l773F7bLh9pg2W-463" value="&lt;font style=&quot;font-size: 30px;&quot;&gt;$$&lt;br&gt;&amp;nbsp;G$$&lt;/font&gt;" style="text;html=1;strokeColor=none;fillColor=none;align=center;verticalAlign=middle;whiteSpace=wrap;rounded=0;movable=1;resizable=1;rotatable=1;deletable=1;editable=1;locked=0;connectable=1;container=0;" parent="1" vertex="1">
          <mxGeometry x="-517.4200000000001" y="608.5" width="96.84" height="30" as="geometry" />
        </mxCell>
        <mxCell id="RP3RG8l773F7bLh9pg2W-464" value="&lt;font style=&quot;font-size: 30px;&quot;&gt;$$&lt;br&gt;\zeta G$$&lt;/font&gt;" style="text;html=1;strokeColor=none;fillColor=none;align=center;verticalAlign=middle;whiteSpace=wrap;rounded=0;movable=1;resizable=1;rotatable=1;deletable=1;editable=1;locked=0;connectable=1;container=0;" parent="1" vertex="1">
          <mxGeometry x="-341.00000000000006" y="608.5" width="96.84" height="30" as="geometry" />
        </mxCell>
        <mxCell id="RP3RG8l773F7bLh9pg2W-470" value="" style="rounded=1;whiteSpace=wrap;html=1;arcSize=26;gradientColor=none;gradientDirection=north;fillColor=#FFFFFF;" parent="1" vertex="1">
          <mxGeometry x="144" y="1195" width="140" height="120" as="geometry" />
        </mxCell>
        <mxCell id="RP3RG8l773F7bLh9pg2W-471" value="&lt;font color=&quot;#ffd966&quot; style=&quot;font-size: 30px;&quot;&gt;$$\Delta G_{intra}&amp;nbsp;&lt;br&gt;$$&lt;/font&gt;" style="text;html=1;strokeColor=none;fillColor=none;align=center;verticalAlign=middle;whiteSpace=wrap;rounded=0;movable=1;resizable=1;rotatable=1;deletable=1;editable=1;locked=0;connectable=1;container=0;" parent="1" vertex="1">
          <mxGeometry x="154" y="1205" width="122.21" height="30" as="geometry" />
        </mxCell>
        <mxCell id="RP3RG8l773F7bLh9pg2W-472" value="&lt;font color=&quot;#67ab9f&quot; style=&quot;font-size: 30px;&quot;&gt;$$\Delta{G_{extra}}$$&lt;/font&gt;" style="text;html=1;strokeColor=none;fillColor=none;align=center;verticalAlign=middle;whiteSpace=wrap;rounded=0;movable=1;resizable=1;rotatable=1;deletable=1;editable=1;locked=0;connectable=1;container=0;" parent="1" vertex="1">
          <mxGeometry x="154" y="1270" width="125.42" height="30" as="geometry" />
        </mxCell>
        <mxCell id="RP3RG8l773F7bLh9pg2W-473" value="&lt;font style=&quot;font-size: 39px;&quot;&gt;&amp;gt;&lt;/font&gt;" style="text;html=1;strokeColor=none;fillColor=none;align=center;verticalAlign=middle;whiteSpace=wrap;rounded=0;" parent="1" vertex="1">
          <mxGeometry x="179.21000000000004" y="1238" width="60" height="30" as="geometry" />
        </mxCell>
        <mxCell id="RP3RG8l773F7bLh9pg2W-474" value="&lt;span style=&quot;font-size: 39px;&quot;&gt;&amp;lt;&lt;/span&gt;" style="text;html=1;strokeColor=none;fillColor=none;align=center;verticalAlign=middle;whiteSpace=wrap;rounded=0;" parent="1" vertex="1">
          <mxGeometry x="510.75000000000006" y="1238" width="60" height="30" as="geometry" />
        </mxCell>
        <mxCell id="6BPW-kAtARyyUyfv2yXK-3" value="" style="group" parent="1" vertex="1" connectable="0">
          <mxGeometry x="-692" y="585" width="85.99888888888904" height="8" as="geometry" />
        </mxCell>
        <mxCell id="RP3RG8l773F7bLh9pg2W-458" value="" style="ellipse;whiteSpace=wrap;html=1;aspect=fixed;fillColor=#e1d5e7;strokeColor=#9673a6;container=0;" parent="6BPW-kAtARyyUyfv2yXK-3" vertex="1">
          <mxGeometry width="8" height="8" as="geometry" />
        </mxCell>
        <mxCell id="RP3RG8l773F7bLh9pg2W-459" value="" style="ellipse;whiteSpace=wrap;html=1;aspect=fixed;fillColor=#e1d5e7;strokeColor=#9673a6;container=0;" parent="6BPW-kAtARyyUyfv2yXK-3" vertex="1">
          <mxGeometry x="24.418888888889" width="8" height="8" as="geometry" />
        </mxCell>
        <mxCell id="RP3RG8l773F7bLh9pg2W-460" value="" style="ellipse;whiteSpace=wrap;html=1;aspect=fixed;fillColor=#ffe6cc;strokeColor=#d79b00;container=0;" parent="6BPW-kAtARyyUyfv2yXK-3" vertex="1">
          <mxGeometry x="50.83999999999992" width="8" height="8" as="geometry" />
        </mxCell>
        <mxCell id="RP3RG8l773F7bLh9pg2W-461" value="" style="ellipse;whiteSpace=wrap;html=1;aspect=fixed;fillColor=#ffe6cc;strokeColor=#d79b00;container=0;" parent="6BPW-kAtARyyUyfv2yXK-3" vertex="1">
          <mxGeometry x="77.99888888888904" width="8" height="8" as="geometry" />
        </mxCell>
        <mxCell id="6BPW-kAtARyyUyfv2yXK-5" value="" style="group" parent="1" vertex="1" connectable="0">
          <mxGeometry x="-123.00000000000003" y="585" width="85.99888888888904" height="8" as="geometry" />
        </mxCell>
        <mxCell id="RP3RG8l773F7bLh9pg2W-453" value="" style="ellipse;whiteSpace=wrap;html=1;aspect=fixed;fillColor=#e1d5e7;strokeColor=#9673a6;container=0;" parent="6BPW-kAtARyyUyfv2yXK-5" vertex="1">
          <mxGeometry width="8" height="8" as="geometry" />
        </mxCell>
        <mxCell id="RP3RG8l773F7bLh9pg2W-454" value="" style="ellipse;whiteSpace=wrap;html=1;aspect=fixed;fillColor=#e1d5e7;strokeColor=#9673a6;container=0;" parent="6BPW-kAtARyyUyfv2yXK-5" vertex="1">
          <mxGeometry x="24.418888888889043" width="8" height="8" as="geometry" />
        </mxCell>
        <mxCell id="RP3RG8l773F7bLh9pg2W-455" value="" style="ellipse;whiteSpace=wrap;html=1;aspect=fixed;fillColor=#ffe6cc;strokeColor=#d79b00;container=0;" parent="6BPW-kAtARyyUyfv2yXK-5" vertex="1">
          <mxGeometry x="50.84" width="8" height="8" as="geometry" />
        </mxCell>
        <mxCell id="RP3RG8l773F7bLh9pg2W-456" value="" style="ellipse;whiteSpace=wrap;html=1;aspect=fixed;fillColor=#ffe6cc;strokeColor=#d79b00;container=0;" parent="6BPW-kAtARyyUyfv2yXK-5" vertex="1">
          <mxGeometry x="77.99888888888904" width="8" height="8" as="geometry" />
        </mxCell>
        <mxCell id="AlVGFJJb9J1VgrRl0-3i-9" value="" style="triangle;whiteSpace=wrap;html=1;rotation=90;fillColor=#f8cecc;strokeColor=#b85450;strokeWidth=2;" vertex="1" parent="1">
          <mxGeometry x="170" y="745" width="60" height="40" as="geometry" />
        </mxCell>
        <mxCell id="AlVGFJJb9J1VgrRl0-3i-10" value="" style="triangle;whiteSpace=wrap;html=1;rotation=90;fillColor=#f8cecc;strokeColor=#b85450;strokeWidth=2;" vertex="1" parent="1">
          <mxGeometry x="500" y="745" width="60" height="40" as="geometry" />
        </mxCell>
      </root>
    </mxGraphModel>
  </diagram>
</mxfile>
